<svg width="279" height="115" viewBox="0 0 279 115" fill="none" xmlns="http://www.w3.org/2000/svg">
<path d="M34.6667 51.7333L35.2991 49.836L35.2579 49.8222L35.2161 49.8103L34.6667 51.7333ZM31.3333 50.8667L30.8015 52.7947L30.8326 52.8032L30.8641 52.8108L31.3333 50.8667ZM28.3333 50.0667L27.7368 51.9756L27.7921 51.9929L27.8483 52.007L28.3333 50.0667ZM26.1333 49.2667L25.2389 51.0555L25.3043 51.0882L25.3718 51.116L26.1333 49.2667ZM24.6 48.0667L22.9127 49.1404L22.9363 49.1775L22.9615 49.2136L24.6 48.0667ZM42.6 46.8667L41.1966 48.2916L43.543 50.6025L44.5116 47.4548L42.6 46.8667ZM45.5333 37.3333L47.4449 37.9215L47.8106 36.7331L46.9066 35.8793L45.5333 37.3333ZM44.3333 36.2L45.7066 34.746L45.6369 34.6802L45.5612 34.6213L44.3333 36.2ZM15.4667 33.9333L14.7925 32.0504L14.7925 32.0504L15.4667 33.9333ZM6.6 40.2L8.15223 41.4612L8.157 41.4553L8.16174 41.4494L6.6 40.2ZM18.6667 69.8L18.0912 71.7154L18.092 71.7157L18.6667 69.8ZM27.3333 73L26.4037 74.7708L26.4212 74.78L26.4389 74.7889L27.3333 73ZM28.4667 78.8667L27.3741 77.1914L27.3569 77.2027L27.34 77.2142L28.4667 78.8667ZM12.1333 78.2667L11.552 80.1803L11.5586 80.1823L12.1333 78.2667ZM4.6 74.4667L5.99295 73.0315L3.23771 70.3573L2.62558 74.1478L4.6 74.4667ZM2.86667 85.2L0.892247 84.8811L0.739613 85.8263L1.38008 86.5379L2.86667 85.2ZM11.0667 89.3333L10.4342 91.2307L10.4431 91.2337L10.4521 91.2366L11.0667 89.3333ZM23.7333 93.4C32.5452 93.4 39.5239 91.6556 44.3288 87.8316C49.2208 83.9382 51.5333 78.1561 51.5333 70.8667H47.5333C47.5333 77.2661 45.5459 81.7507 41.8379 84.7018C38.0428 87.7222 32.1215 89.4 23.7333 89.4V93.4ZM51.5333 70.8667C51.5333 65.8115 50.2639 61.4352 47.6027 57.8703L44.3973 60.2631C46.4473 63.0092 47.5333 66.4996 47.5333 70.8667H51.5333ZM47.6027 57.8703C44.9241 54.282 40.7393 51.6494 35.2991 49.836L34.0342 53.6307C38.994 55.284 42.3648 57.5403 44.3973 60.2631L47.6027 57.8703ZM35.2161 49.8103C34.2486 49.5339 33.1094 49.2379 31.8026 48.9225L30.8641 52.8108C32.135 53.1176 33.2181 53.3995 34.1172 53.6564L35.2161 49.8103ZM31.8652 48.9387C30.5712 48.5817 29.553 48.31 28.8184 48.1264L27.8483 52.007C28.5359 52.1789 29.5177 52.4405 30.8015 52.7947L31.8652 48.9387ZM28.9299 48.1577C28.2796 47.9545 27.6014 47.7083 26.8948 47.4173L25.3718 51.116C26.1764 51.4473 26.9648 51.7344 27.7368 51.9756L28.9299 48.1577ZM27.0278 47.4778C26.4855 47.2067 26.2905 46.9941 26.2385 46.9197L22.9615 49.2136C23.5317 50.0281 24.359 50.6155 25.2389 51.0555L27.0278 47.4778ZM26.2873 46.9929C26.2224 46.8909 26.1333 46.6841 26.1333 46.2667H22.1333C22.1333 47.2715 22.3553 48.2646 22.9127 49.1404L26.2873 46.9929ZM26.1333 46.2667C26.1333 45.7166 26.2984 45.4454 26.7323 45.1896C27.3309 44.8367 28.4866 44.5333 30.4667 44.5333V40.5333C28.2245 40.5333 26.2135 40.8522 24.701 41.7437C23.0238 42.7324 22.1333 44.3278 22.1333 46.2667H26.1333ZM30.4667 44.5333C35.2366 44.5333 38.7263 45.8587 41.1966 48.2916L44.0034 45.4417C40.607 42.0968 36.0079 40.5333 30.4667 40.5333V44.5333ZM44.5116 47.4548L47.4449 37.9215L43.6218 36.7452L40.6884 46.2785L44.5116 47.4548ZM45.5333 37.3333C46.9066 35.8793 46.9066 35.8793 46.9066 35.8793C46.9066 35.8793 46.9066 35.8793 46.9066 35.8793C46.9065 35.8793 46.9066 35.8793 46.9065 35.8792C46.9064 35.8791 46.9066 35.8793 46.9064 35.8792C46.906 35.8788 46.9067 35.8794 46.9063 35.879C46.9057 35.8784 46.9062 35.879 46.9054 35.8782C46.9045 35.8773 46.9036 35.8765 46.9019 35.8749C46.8924 35.8659 46.9004 35.8735 46.8878 35.8616C46.8745 35.849 46.8575 35.8329 46.8316 35.8085C46.7502 35.7316 46.8317 35.8086 46.7378 35.7199C46.7356 35.7178 46.7259 35.7087 46.7235 35.7064C46.7136 35.6971 46.7186 35.7018 46.7085 35.6923C46.6878 35.6727 46.6984 35.6827 46.6769 35.6624C46.6317 35.6197 46.6549 35.6416 46.6066 35.596C46.5069 35.5019 46.55 35.5425 46.4378 35.4366C46.3773 35.3794 46.4031 35.4038 46.3394 35.3436C46.3065 35.3126 46.3203 35.3256 46.2867 35.2938C46.2822 35.2896 46.2369 35.2468 46.2316 35.2418C46.2103 35.2217 46.2388 35.2486 46.2174 35.2285C46.2085 35.22 46.2122 35.2235 46.2032 35.215C46.1849 35.1978 46.1926 35.205 46.1742 35.1876C46.1729 35.1864 46.1717 35.1853 46.1705 35.1841C46.1693 35.183 46.168 35.1818 46.1668 35.1806C46.1656 35.1795 46.1644 35.1783 46.1631 35.1772C46.1619 35.176 46.1607 35.1748 46.1594 35.1737C46.12 35.1364 46.1841 35.1969 46.1446 35.1596C46.094 35.1119 46.1652 35.1791 46.1144 35.1311C46.0979 35.1155 46.1156 35.1323 46.0991 35.1167C46.0914 35.1094 46.0914 35.1094 46.0836 35.1021C46.0474 35.0679 46.0887 35.1069 46.0523 35.0725C45.9437 34.97 46.0972 35.1149 45.9878 35.0116C45.946 34.9721 45.9636 34.9887 45.921 34.9485C45.8419 34.8738 45.9318 34.9587 45.8519 34.8832C45.7258 34.7641 45.9073 34.9356 45.7804 34.8157C45.7342 34.772 45.7536 34.7904 45.7066 34.746L42.9601 37.654C42.9616 37.6555 42.9632 37.657 42.9648 37.6584C42.9663 37.6599 42.9679 37.6614 42.9694 37.6629C42.9819 37.6746 42.9664 37.66 42.9788 37.6717C42.9819 37.6746 42.9942 37.6863 42.9973 37.6892C42.9988 37.6906 43.0004 37.6921 43.0019 37.6935C43.0034 37.695 43.005 37.6964 43.0065 37.6979C43.008 37.6993 43.0096 37.7008 43.0111 37.7022C43.0126 37.7036 43.0142 37.7051 43.0157 37.7065C43.0187 37.7094 43.0218 37.7123 43.0248 37.7152C43.0263 37.7166 43.0279 37.718 43.0294 37.7195C43.0309 37.7209 43.0324 37.7223 43.0339 37.7238C43.0385 37.728 43.0475 37.7366 43.052 37.7408C43.0535 37.7423 43.055 37.7437 43.0565 37.7451C43.058 37.7465 43.0595 37.7479 43.061 37.7493C43.0625 37.7507 43.064 37.7522 43.0655 37.7536C43.067 37.755 43.0685 37.7564 43.0699 37.7578C43.1027 37.7887 43.0728 37.7605 43.1054 37.7913C43.2179 37.8975 43.132 37.8164 43.2413 37.9197C43.3287 38.0022 43.4102 38.0791 43.4851 38.1499C43.4863 38.151 43.4874 38.1521 43.4886 38.1532C43.4898 38.1543 43.4909 38.1554 43.4921 38.1565C43.4933 38.1576 43.4944 38.1587 43.4956 38.1598C43.4968 38.1609 43.4979 38.162 43.4991 38.1631C43.5002 38.1642 43.5014 38.1653 43.5025 38.1664C43.5037 38.1674 43.5049 38.1685 43.506 38.1696C43.5072 38.1707 43.5083 38.1718 43.5095 38.1729C43.5106 38.174 43.5118 38.1751 43.5129 38.1761C43.5164 38.1794 43.5232 38.1859 43.5266 38.1891C43.5277 38.1902 43.5289 38.1912 43.53 38.1923C43.5311 38.1934 43.5323 38.1944 43.5334 38.1955C43.5345 38.1966 43.5357 38.1976 43.5368 38.1987C43.5379 38.1998 43.539 38.2008 43.5402 38.2019C43.5482 38.2095 43.5456 38.207 43.5536 38.2145C43.5547 38.2156 43.5558 38.2166 43.5569 38.2177C43.558 38.2187 43.5591 38.2198 43.5602 38.2208C43.5613 38.2219 43.5624 38.2229 43.5635 38.2239C43.5646 38.225 43.5657 38.226 43.5668 38.2271C43.5788 38.2384 43.568 38.2282 43.5799 38.2394C43.581 38.2405 43.5821 38.2415 43.5832 38.2425C43.5843 38.2435 43.5854 38.2446 43.5864 38.2456C43.5875 38.2466 43.5886 38.2476 43.5897 38.2486C43.5907 38.2497 43.5918 38.2507 43.5929 38.2517C43.594 38.2527 43.595 38.2537 43.5961 38.2547C43.5972 38.2557 43.5983 38.2567 43.5993 38.2578C43.6004 38.2588 43.6015 38.2598 43.6025 38.2608C43.6036 38.2618 43.6047 38.2628 43.6057 38.2638C43.6152 38.2728 43.6026 38.2608 43.6121 38.2698C43.6131 38.2708 43.6142 38.2718 43.6152 38.2728C43.6163 38.2738 43.6173 38.2748 43.6184 38.2758C43.6194 38.2767 43.6205 38.2777 43.6215 38.2787C43.6226 38.2797 43.6236 38.2807 43.6247 38.2817C43.6257 38.2827 43.6268 38.2837 43.6278 38.2846C43.6288 38.2856 43.6299 38.2866 43.6309 38.2876C43.6319 38.2886 43.633 38.2895 43.634 38.2905C43.6351 38.2915 43.6361 38.2925 43.6371 38.2934C43.6381 38.2944 43.6392 38.2954 43.6402 38.2964C43.6412 38.2973 43.6423 38.2983 43.6433 38.2993C43.6666 38.3213 43.6322 38.2888 43.6555 38.3108C43.6677 38.3223 43.6494 38.3051 43.6616 38.3166C43.6626 38.3175 43.6636 38.3185 43.6646 38.3194C43.6656 38.3203 43.6666 38.3213 43.6676 38.3222C43.6712 38.3256 43.67 38.3245 43.6736 38.3279C43.6746 38.3288 43.6756 38.3298 43.6766 38.3307C43.6776 38.3316 43.6786 38.3326 43.6795 38.3335C43.6913 38.3447 43.6737 38.328 43.6855 38.3391C43.6864 38.34 43.6874 38.341 43.6884 38.3419C43.6894 38.3428 43.6904 38.3437 43.6913 38.3447C43.7772 38.4257 43.6977 38.3506 43.7804 38.4288C43.7874 38.4354 43.7944 38.442 43.8012 38.4484C43.8097 38.4565 43.8029 38.45 43.8114 38.458C43.8156 38.462 43.8173 38.4636 43.8214 38.4675C43.8222 38.4683 43.8231 38.4691 43.8239 38.4699C43.8247 38.4706 43.8256 38.4714 43.8264 38.4722C43.8272 38.473 43.828 38.4737 43.8288 38.4745C43.8297 38.4753 43.8305 38.4761 43.8313 38.4768C43.8436 38.4884 43.8288 38.4745 43.841 38.486C43.8959 38.5379 43.8054 38.4524 43.8601 38.504C43.8609 38.5048 43.8616 38.5055 43.8624 38.5062C43.8632 38.507 43.864 38.5077 43.8648 38.5084C43.8667 38.5103 43.8675 38.511 43.8694 38.5128C43.8732 38.5164 43.8702 38.5135 43.874 38.5172C43.8747 38.5179 43.8755 38.5186 43.8763 38.5193C43.877 38.52 43.8778 38.5207 43.8785 38.5215C43.8831 38.5257 43.8921 38.5342 43.8964 38.5383C43.9377 38.5773 43.8727 38.5159 43.9137 38.5547C43.9144 38.5553 43.9151 38.556 43.9158 38.5567C43.9165 38.5573 43.9172 38.558 43.9179 38.5587C43.9186 38.5593 43.9193 38.56 43.92 38.5606C43.9207 38.5613 43.9214 38.562 43.9221 38.5626C43.9228 38.5633 43.9235 38.5639 43.9242 38.5646C43.9249 38.5652 43.9256 38.5659 43.9263 38.5665C43.927 38.5672 43.9277 38.5678 43.9283 38.5685C43.929 38.5691 43.9297 38.5698 43.9304 38.5704C44.0179 38.6531 43.9069 38.5483 43.9913 38.628C43.9919 38.6285 43.9925 38.6291 43.9931 38.6296C43.9937 38.6302 43.9943 38.6307 43.9948 38.6313C43.9954 38.6318 43.996 38.6324 43.9966 38.6329C43.9971 38.6335 43.9977 38.634 43.9983 38.6346C43.9989 38.6351 43.9994 38.6356 44 38.6362C44.0006 38.6367 44.0011 38.6373 44.0017 38.6378C44.0023 38.6383 44.0029 38.6389 44.0034 38.6394C44.004 38.6399 44.0045 38.6405 44.0051 38.641C44.0121 38.6476 44.0114 38.647 44.0183 38.6534C44.0188 38.6539 44.0194 38.6545 44.0199 38.655C44.0204 38.6555 44.021 38.656 44.0215 38.6565C44.022 38.657 44.0226 38.6575 44.0231 38.658C44.0236 38.6585 44.0241 38.659 44.0247 38.6595C44.0252 38.66 44.0257 38.6604 44.0262 38.6609C44.0268 38.6614 44.0273 38.6619 44.0278 38.6624C44.0283 38.6629 44.0288 38.6634 44.0293 38.6639C44.0299 38.6644 44.0304 38.6649 44.0309 38.6653C44.0516 38.6849 44.0224 38.6573 44.0429 38.6767C44.0434 38.6771 44.0439 38.6776 44.0444 38.6781C44.0448 38.6785 44.0453 38.679 44.0458 38.6794C44.0463 38.6799 44.0468 38.6803 44.0473 38.6808C44.0477 38.6812 44.0482 38.6817 44.0487 38.6821C44.0492 38.6826 44.0496 38.683 44.0501 38.6835C44.0506 38.6839 44.0511 38.6844 44.0515 38.6848C44.052 38.6853 44.0525 38.6857 44.0529 38.6862C44.0534 38.6866 44.0539 38.687 44.0543 38.6875C44.0571 38.6901 44.0626 38.6953 44.0652 38.6977C44.0675 38.6999 44.0835 38.715 44.0851 38.7165C44.0874 38.7187 44.092 38.7231 44.0942 38.7251C44.0957 38.7266 44.1013 38.7318 44.1027 38.7331C44.103 38.7335 44.1033 38.7338 44.1037 38.7341C44.104 38.7344 44.1044 38.7347 44.1047 38.735C44.105 38.7354 44.1054 38.7357 44.1057 38.736C44.106 38.7363 44.1064 38.7366 44.1067 38.7369C44.1074 38.7376 44.1099 38.74 44.1106 38.7406C44.1134 38.7433 44.1096 38.7397 44.1125 38.7424C44.1126 38.7425 44.1142 38.744 44.1143 38.7441C44.1146 38.7444 44.1149 38.7447 44.1152 38.745C44.1155 38.7453 44.1158 38.7456 44.1161 38.7458C44.1209 38.7504 44.1131 38.743 44.1179 38.7475C44.1257 38.7549 44.1366 38.7652 44.1413 38.7697C44.1468 38.7748 44.1449 38.773 44.1495 38.7774C44.1546 38.7822 44.1479 38.7758 44.1528 38.7804C44.1531 38.7808 44.1552 38.7828 44.1554 38.7829C44.1555 38.783 44.1556 38.7831 44.1557 38.7832C44.1558 38.7833 44.1559 38.7834 44.156 38.7835C44.1561 38.7836 44.1561 38.7836 44.1562 38.7837C44.1563 38.7838 44.1564 38.7839 44.1565 38.784C44.1566 38.7841 44.1567 38.7841 44.1567 38.7842C44.1568 38.7843 44.1569 38.7844 44.157 38.7844C44.1571 38.7845 44.1571 38.7846 44.1572 38.7847C44.1573 38.7847 44.1574 38.7848 44.1574 38.7849C44.1582 38.7856 44.1576 38.785 44.1583 38.7856C44.1589 38.7862 44.158 38.7854 44.1586 38.786C44.1587 38.786 44.1587 38.7861 44.1588 38.7861C44.1588 38.7862 44.1589 38.7862 44.1589 38.7863C44.1596 38.7869 44.1588 38.7861 44.1594 38.7867C44.1598 38.7871 44.1595 38.7868 44.1598 38.7871C44.1598 38.7871 44.16 38.7873 44.16 38.7873C44.16 38.7873 44.16 38.7873 44.16 38.7873C44.1601 38.7873 44.1601 38.7873 44.1601 38.7873C44.1601 38.7873 44.1601 38.7874 44.1601 38.7874C44.1601 38.7874 44.1601 38.7874 45.5333 37.3333ZM45.5612 34.6213C41.4437 31.4188 35.3072 30 27.5333 30V34C34.9595 34 40.0229 35.3812 43.1055 37.7787L45.5612 34.6213ZM27.5333 30C22.8957 30 18.6408 30.6726 14.7925 32.0504L16.1408 35.8163C19.4925 34.6163 23.2821 34 27.5333 34V30ZM14.7925 32.0504C10.856 33.4598 7.58887 35.7624 5.03826 38.9506L8.16174 41.4494C10.2334 38.8599 12.8773 36.9847 16.1408 35.8163L14.7925 32.0504ZM5.04777 38.9388C2.41992 42.1731 1.13333 46.0522 1.13333 50.4667H5.13333C5.13333 46.8811 6.15786 43.9158 8.15223 41.4612L5.04777 38.9388ZM1.13333 50.4667C1.13333 55.7244 2.53334 60.2464 5.45755 63.886C8.36734 67.5076 12.6442 70.079 18.0912 71.7154L19.2421 67.8846C14.3336 66.4099 10.8438 64.2035 8.57578 61.3807C6.32221 58.5758 5.13333 54.9867 5.13333 50.4667H1.13333ZM18.092 71.7157C22.071 72.9094 24.8053 73.9317 26.4037 74.7708L28.263 71.2292C26.3058 70.2017 23.2623 69.0906 19.2414 67.8843L18.092 71.7157ZM26.4389 74.7889C27.1935 75.1662 27.612 75.5018 27.8241 75.7457C28.0097 75.9591 28 76.0523 28 76.0667H32C32 73.714 30.1709 72.1827 28.2278 71.2111L26.4389 74.7889ZM28 76.0667C28 76.577 27.8419 76.8864 27.3741 77.1914L29.5592 80.5419C31.1359 79.5136 32 77.9563 32 76.0667H28ZM27.34 77.2142C27.1754 77.3265 26.7819 77.5075 26.0068 77.6493C25.2536 77.7871 24.2603 77.8667 23 77.8667V81.8667C24.4063 81.8667 25.6575 81.7796 26.7265 81.584C27.7736 81.3925 28.7802 81.0735 29.5933 80.5191L27.34 77.2142ZM23 77.8667C19.507 77.8667 16.0783 77.3621 12.708 76.351L11.5586 80.1823C15.2994 81.3046 19.1152 81.8667 23 81.8667V77.8667ZM12.7147 76.353C9.3132 75.3197 7.16401 74.1681 5.99295 73.0315L3.20705 75.9018C5.05822 77.6985 7.93124 79.0803 11.552 80.1803L12.7147 76.353ZM2.62558 74.1478L0.892247 84.8811L4.84109 85.5189L6.57442 74.7855L2.62558 74.1478ZM1.38008 86.5379C2.22328 87.4748 3.46224 88.2863 4.91644 89.0193C6.3994 89.7668 8.24741 90.5018 10.4342 91.2307L11.6991 87.436C9.61925 86.7427 7.96727 86.0777 6.7169 85.4474C5.43776 84.8026 4.71005 84.2585 4.35325 83.8621L1.38008 86.5379ZM10.4521 91.2366C14.9028 92.6738 19.3322 93.4 23.7333 93.4V89.4C19.779 89.4 15.7639 88.7485 11.6813 87.4301L10.4521 91.2366ZM75.8901 90V92H77.8901V90H75.8901ZM75.8901 51.1333L74.4759 49.7191L73.8901 50.3049V51.1333H75.8901ZM76.5568 50.5333L75.3074 48.9716L75.2668 49.004L75.228 49.0385L76.5568 50.5333ZM77.3568 49.8667L76.2474 48.2026L76.0826 48.3124L75.9426 48.4524L77.3568 49.8667ZM78.0901 49.3333L76.9807 47.6692L76.9345 47.7L76.8901 47.7333L78.0901 49.3333ZM78.9568 48.8L78.214 46.943L78.1368 46.9739L78.0624 47.0111L78.9568 48.8ZM79.8234 48.4L78.929 46.6111L78.929 46.6111L79.8234 48.4ZM80.8234 48.0667L80.5754 46.0821L80.558 46.0843L80.5406 46.0868L80.8234 48.0667ZM87.2234 54.2667L85.2245 54.2029L85.2234 54.2348V54.2667H87.2234ZM87.2234 90H85.2234V92H87.2234V90ZM109.223 90V92H111.223V90H109.223ZM109.29 54.9333L111.283 55.0994L111.29 55.0165V54.9333H109.29ZM105.49 37L103.888 38.1966L103.893 38.2034L103.898 38.2102L105.49 37ZM87.2901 33.0667L87.9923 34.9393L88.0048 34.9347L88.0172 34.9298L87.2901 33.0667ZM82.6901 35.5333L83.8631 37.1532L83.8811 37.1402L83.8989 37.1267L82.6901 35.5333ZM79.1568 38.4L77.8053 36.9257L77.7897 36.94L77.7743 36.9547L79.1568 38.4ZM76.8234 40.9333L78.3852 42.1827L78.4047 42.1583L78.4234 42.1333L76.8234 40.9333ZM76.0234 41.9333H74.0234V47.6349L77.5852 43.1827L76.0234 41.9333ZM76.0234 2.66667H78.0234V0.666667H76.0234V2.66667ZM71.6901 2.66667V0.666667H71.5353L71.3823 0.690496L71.6901 2.66667ZM50.2901 6L49.9823 4.02383L48.2901 4.28741V6H50.2901ZM50.2901 12.2H48.2901V13.3324L49.2611 13.915L50.2901 12.2ZM54.2901 14.6H56.2901V13.4676L55.3191 12.885L54.2901 14.6ZM54.2901 90H52.2901V92H54.2901V90ZM77.8901 90V51.1333H73.8901V90H77.8901ZM77.3043 52.5475C77.2799 52.572 77.2705 52.5797 77.3082 52.5451C77.3351 52.5205 77.3745 52.4848 77.428 52.4366C77.5346 52.3407 77.6866 52.205 77.8855 52.0281L75.228 49.0385C74.8633 49.3627 74.5745 49.6205 74.4759 49.7191L77.3043 52.5475ZM77.8062 52.0951C78.2111 51.7711 78.5845 51.4674 78.771 51.2809L75.9426 48.4524C75.968 48.427 75.9743 48.4229 75.9398 48.4532C75.9116 48.4778 75.8692 48.514 75.8097 48.5636C75.691 48.6625 75.5248 48.7976 75.3074 48.9716L77.8062 52.0951ZM78.4662 51.5308C78.6524 51.4066 78.9393 51.1964 79.2901 50.9333L76.8901 47.7333C76.5298 48.0036 76.3278 48.149 76.2474 48.2026L78.4662 51.5308ZM79.1995 50.9974C79.3869 50.8725 79.5377 50.7755 79.655 50.7033C79.7133 50.6674 79.7595 50.6401 79.7949 50.6198C79.8124 50.6098 79.8259 50.6023 79.8359 50.5969C79.8409 50.5943 79.8446 50.5923 79.8473 50.5909C79.8499 50.5895 79.8512 50.5889 79.8512 50.5889L78.0624 47.0111C77.7615 47.1616 77.3804 47.4028 76.9807 47.6692L79.1995 50.9974ZM79.6996 50.657C79.9957 50.5385 80.3405 50.3776 80.7179 50.1889L78.929 46.6111C78.5953 46.778 78.3623 46.8837 78.214 46.943L79.6996 50.657ZM80.7179 50.1889C80.9297 50.0829 81.0558 50.0538 81.1063 50.0466L80.5406 46.0868C79.9689 46.1684 79.4283 46.3615 78.929 46.6111L80.7179 50.1889ZM81.0715 50.0512C81.3454 50.017 81.6181 50 81.8901 50V46C81.451 46 81.0126 46.0275 80.5754 46.0821L81.0715 50.0512ZM81.8901 50C83.362 50 84.0777 50.4055 84.467 50.8629C84.9011 51.373 85.2833 52.3588 85.2245 54.2029L89.2224 54.3305C89.2969 51.9968 88.8569 49.8492 87.5132 48.2704C86.1247 46.639 84.1071 46 81.8901 46V50ZM85.2234 54.2667V90H89.2234V54.2667H85.2234ZM87.2234 92H109.223V88H87.2234V92ZM111.223 90V56.2H107.223V90H111.223ZM111.223 56.2C111.223 55.9698 111.241 55.6107 111.283 55.0994L107.297 54.7672C107.251 55.3227 107.223 55.808 107.223 56.2H111.223ZM111.29 54.9333C111.29 54.9323 111.29 54.9312 111.29 54.9302C111.29 54.9292 111.29 54.9281 111.29 54.9271C111.29 54.926 111.29 54.925 111.29 54.924C111.29 54.9229 111.29 54.9219 111.29 54.9209C111.29 54.9198 111.29 54.9188 111.29 54.9177C111.29 54.9167 111.29 54.9157 111.29 54.9146C111.29 54.9136 111.29 54.9126 111.29 54.9115C111.29 54.9105 111.29 54.9095 111.29 54.9084C111.29 54.9074 111.29 54.9064 111.29 54.9053C111.29 54.9043 111.29 54.9033 111.29 54.9022C111.29 54.9012 111.29 54.9002 111.29 54.8991C111.29 54.8981 111.29 54.8971 111.29 54.8961C111.29 54.895 111.29 54.894 111.29 54.893C111.29 54.8919 111.29 54.8909 111.29 54.8899C111.29 54.8889 111.29 54.8878 111.29 54.8868C111.29 54.8858 111.29 54.8847 111.29 54.8837C111.29 54.8827 111.29 54.8817 111.29 54.8806C111.29 54.8796 111.29 54.8786 111.29 54.8776C111.29 54.8766 111.29 54.8755 111.29 54.8745C111.29 54.8735 111.29 54.8725 111.29 54.8714C111.29 54.8704 111.29 54.8694 111.29 54.8684C111.29 54.8674 111.29 54.8663 111.29 54.8653C111.29 54.8643 111.29 54.8633 111.29 54.8623C111.29 54.8612 111.29 54.8602 111.29 54.8592C111.29 54.8582 111.29 54.8572 111.29 54.8562C111.29 54.8551 111.29 54.8541 111.29 54.8531C111.29 54.8521 111.29 54.8511 111.29 54.8501C111.29 54.8491 111.29 54.848 111.29 54.847C111.29 54.846 111.29 54.845 111.29 54.844C111.29 54.843 111.29 54.842 111.29 54.841C111.29 54.8399 111.29 54.8389 111.29 54.8379C111.29 54.8369 111.29 54.8359 111.29 54.8349C111.29 54.8339 111.29 54.8329 111.29 54.8319C111.29 54.8309 111.29 54.8299 111.29 54.8288C111.29 54.8278 111.29 54.8268 111.29 54.8258C111.29 54.8248 111.29 54.8238 111.29 54.8228C111.29 54.8218 111.29 54.8208 111.29 54.8198C111.29 54.8188 111.29 54.8178 111.29 54.8168C111.29 54.8158 111.29 54.8148 111.29 54.8138C111.29 54.8128 111.29 54.8118 111.29 54.8108C111.29 54.8098 111.29 54.8088 111.29 54.8078C111.29 54.8068 111.29 54.8058 111.29 54.8048C111.29 54.8038 111.29 54.8028 111.29 54.8018C111.29 54.8008 111.29 54.7998 111.29 54.7988C111.29 54.7978 111.29 54.7968 111.29 54.7958C111.29 54.7948 111.29 54.7938 111.29 54.7928C111.29 54.7918 111.29 54.7908 111.29 54.7898C111.29 54.7888 111.29 54.7878 111.29 54.7868C111.29 54.7859 111.29 54.7849 111.29 54.7839C111.29 54.7829 111.29 54.7819 111.29 54.7809C111.29 54.7799 111.29 54.7789 111.29 54.7779C111.29 54.7769 111.29 54.7759 111.29 54.775C111.29 54.774 111.29 54.773 111.29 54.772C111.29 54.771 111.29 54.77 111.29 54.769C111.29 54.768 111.29 54.7671 111.29 54.7661C111.29 54.7651 111.29 54.7641 111.29 54.7631C111.29 54.7621 111.29 54.7611 111.29 54.7602C111.29 54.7592 111.29 54.7582 111.29 54.7572C111.29 54.7562 111.29 54.7553 111.29 54.7543C111.29 54.7533 111.29 54.7523 111.29 54.7513C111.29 54.7503 111.29 54.7494 111.29 54.7484C111.29 54.7474 111.29 54.7464 111.29 54.7454C111.29 54.7445 111.29 54.7435 111.29 54.7425C111.29 54.7415 111.29 54.7406 111.29 54.7396C111.29 54.7386 111.29 54.7376 111.29 54.7367C111.29 54.7357 111.29 54.7347 111.29 54.7337C111.29 54.7328 111.29 54.7318 111.29 54.7308C111.29 54.7298 111.29 54.7289 111.29 54.7279C111.29 54.7269 111.29 54.7259 111.29 54.725C111.29 54.724 111.29 54.723 111.29 54.7221C111.29 54.7211 111.29 54.7201 111.29 54.7192C111.29 54.7182 111.29 54.7172 111.29 54.7162C111.29 54.7153 111.29 54.7143 111.29 54.7133C111.29 54.7124 111.29 54.7114 111.29 54.7104C111.29 54.7095 111.29 54.7085 111.29 54.7075C111.29 54.7066 111.29 54.7056 111.29 54.7046C111.29 54.7037 111.29 54.7027 111.29 54.7018C111.29 54.7008 111.29 54.6998 111.29 54.6989C111.29 54.6979 111.29 54.6969 111.29 54.696C111.29 54.695 111.29 54.6941 111.29 54.6931C111.29 54.6921 111.29 54.6912 111.29 54.6902C111.29 54.6893 111.29 54.6883 111.29 54.6873C111.29 54.6864 111.29 54.6854 111.29 54.6845C111.29 54.6835 111.29 54.6826 111.29 54.6816C111.29 54.6806 111.29 54.6797 111.29 54.6787C111.29 54.6778 111.29 54.6768 111.29 54.6759C111.29 54.6749 111.29 54.674 111.29 54.673C111.29 54.6721 111.29 54.6711 111.29 54.6701C111.29 54.6692 111.29 54.6682 111.29 54.6673C111.29 54.6663 111.29 54.6654 111.29 54.6644C111.29 54.6635 111.29 54.6625 111.29 54.6616C111.29 54.6606 111.29 54.6597 111.29 54.6587C111.29 54.6578 111.29 54.6569 111.29 54.6559C111.29 54.655 111.29 54.654 111.29 54.6531C111.29 54.6521 111.29 54.6512 111.29 54.6502C111.29 54.6493 111.29 54.6483 111.29 54.6474C111.29 54.6465 111.29 54.6455 111.29 54.6446C111.29 54.6436 111.29 54.6427 111.29 54.6417C111.29 54.6408 111.29 54.6399 111.29 54.6389C111.29 54.638 111.29 54.637 111.29 54.6361C111.29 54.6352 111.29 54.6342 111.29 54.6333C111.29 54.6323 111.29 54.6314 111.29 54.6305C111.29 54.6295 111.29 54.6286 111.29 54.6276C111.29 54.6267 111.29 54.6258 111.29 54.6248C111.29 54.6239 111.29 54.623 111.29 54.622C111.29 54.6211 111.29 54.6202 111.29 54.6192C111.29 54.6183 111.29 54.6174 111.29 54.6164C111.29 54.6155 111.29 54.6146 111.29 54.6136C111.29 54.6127 111.29 54.6118 111.29 54.6108C111.29 54.6099 111.29 54.609 111.29 54.608C111.29 54.6071 111.29 54.6062 111.29 54.6053C111.29 54.6043 111.29 54.6034 111.29 54.6025C111.29 54.6015 111.29 54.6006 111.29 54.5997C111.29 54.5988 111.29 54.5978 111.29 54.5969C111.29 54.596 111.29 54.5951 111.29 54.5941C111.29 54.5932 111.29 54.5923 111.29 54.5914C111.29 54.5904 111.29 54.5895 111.29 54.5886C111.29 54.5877 111.29 54.5868 111.29 54.5858C111.29 54.5849 111.29 54.584 111.29 54.5831C111.29 54.5821 111.29 54.5812 111.29 54.5803C111.29 54.5794 111.29 54.5785 111.29 54.5775C111.29 54.5766 111.29 54.5757 111.29 54.5748C111.29 54.5739 111.29 54.573 111.29 54.572C111.29 54.5711 111.29 54.5702 111.29 54.5693C111.29 54.5684 111.29 54.5675 111.29 54.5666C111.29 54.5656 111.29 54.5647 111.29 54.5638C111.29 54.5629 111.29 54.562 111.29 54.5611C111.29 54.5602 111.29 54.5592 111.29 54.5583C111.29 54.5574 111.29 54.5565 111.29 54.5556C111.29 54.5547 111.29 54.5538 111.29 54.5529C111.29 54.552 111.29 54.5511 111.29 54.5501C111.29 54.5492 111.29 54.5483 111.29 54.5474C111.29 54.5465 111.29 54.5456 111.29 54.5447C111.29 54.5438 111.29 54.5429 111.29 54.542C111.29 54.5411 111.29 54.5402 111.29 54.5393C111.29 54.5384 111.29 54.5375 111.29 54.5366C111.29 54.5357 111.29 54.5347 111.29 54.5338C111.29 54.5329 111.29 54.532 111.29 54.5311C111.29 54.5302 111.29 54.5293 111.29 54.5284C111.29 54.5275 111.29 54.5266 111.29 54.5257C111.29 54.5248 111.29 54.5239 111.29 54.523C111.29 54.5221 111.29 54.5212 111.29 54.5204C111.29 54.5195 111.29 54.5186 111.29 54.5177C111.29 54.5168 111.29 54.5159 111.29 54.515C111.29 54.5141 111.29 54.5132 111.29 54.5123C111.29 54.5114 111.29 54.5105 111.29 54.5096C111.29 54.5087 111.29 54.5078 111.29 54.5069C111.29 54.506 111.29 54.5051 111.29 54.5043C111.29 54.5034 111.29 54.5025 111.29 54.5016C111.29 54.5007 111.29 54.4998 111.29 54.4989C111.29 54.498 111.29 54.4971 111.29 54.4962C111.29 54.4954 111.29 54.4945 111.29 54.4936C111.29 54.4927 111.29 54.4918 111.29 54.4909C111.29 54.49 111.29 54.4892 111.29 54.4883C111.29 54.4874 111.29 54.4865 111.29 54.4856C111.29 54.4847 111.29 54.4839 111.29 54.483C111.29 54.4821 111.29 54.4812 111.29 54.4803C111.29 54.4794 111.29 54.4786 111.29 54.4777C111.29 54.4768 111.29 54.4759 111.29 54.475C111.29 54.4742 111.29 54.4733 111.29 54.4724C111.29 54.4715 111.29 54.4706 111.29 54.4698C111.29 54.4689 111.29 54.468 111.29 54.4671C111.29 54.4663 111.29 54.4654 111.29 54.4645C111.29 54.4636 111.29 54.4627 111.29 54.4619C111.29 54.461 111.29 54.4601 111.29 54.4593C111.29 54.4584 111.29 54.4575 111.29 54.4566C111.29 54.4558 111.29 54.4549 111.29 54.454C111.29 54.4531 111.29 54.4523 111.29 54.4514C111.29 54.4505 111.29 54.4497 111.29 54.4488C111.29 54.4479 111.29 54.4471 111.29 54.4462C111.29 54.4453 111.29 54.4444 111.29 54.4436C111.29 54.4427 111.29 54.4418 111.29 54.441C111.29 54.4401 111.29 54.4392 111.29 54.4384C111.29 54.4375 111.29 54.4366 111.29 54.4358C111.29 54.4349 111.29 54.4341 111.29 54.4332C111.29 54.4323 111.29 54.4315 111.29 54.4306C111.29 54.4297 111.29 54.4289 111.29 54.428C111.29 54.4272 111.29 54.4263 111.29 54.4254C111.29 54.4246 111.29 54.4237 111.29 54.4228C111.29 54.422 111.29 54.4211 111.29 54.4203C111.29 54.4194 111.29 54.4186 111.29 54.4177C111.29 54.4168 111.29 54.416 111.29 54.4151C111.29 54.4143 111.29 54.4134 111.29 54.4126C111.29 54.4117 111.29 54.4108 111.29 54.41C111.29 54.4091 111.29 54.4083 111.29 54.4074C111.29 54.4066 111.29 54.4057 111.29 54.4049C111.29 54.404 111.29 54.4032 111.29 54.4023C111.29 54.4015 111.29 54.4006 111.29 54.3998C111.29 54.3989 111.29 54.3981 111.29 54.3972C111.29 54.3964 111.29 54.3955 111.29 54.3947C111.29 54.3938 111.29 54.393 111.29 54.3921C111.29 54.3913 111.29 54.3904 111.29 54.3896C111.29 54.3887 111.29 54.3879 111.29 54.387C111.29 54.3862 111.29 54.3854 111.29 54.3845C111.29 54.3837 111.29 54.3828 111.29 54.382C111.29 54.3811 111.29 54.3803 111.29 54.3795C111.29 54.3786 111.29 54.3778 111.29 54.3769C111.29 54.3761 111.29 54.3752 111.29 54.3744C111.29 54.3736 111.29 54.3727 111.29 54.3719C111.29 54.371 111.29 54.3702 111.29 54.3694C111.29 54.3685 111.29 54.3677 111.29 54.3669C111.29 54.366 111.29 54.3652 111.29 54.3643C111.29 54.3635 111.29 54.3627 111.29 54.3618C111.29 54.361 111.29 54.3602 111.29 54.3593C111.29 54.3585 111.29 54.3577 111.29 54.3568C111.29 54.356 111.29 54.3552 111.29 54.3543C111.29 54.3535 111.29 54.3527 111.29 54.3518C111.29 54.351 111.29 54.3502 111.29 54.3493C111.29 54.3485 111.29 54.3477 111.29 54.3469C111.29 54.346 111.29 54.3452 111.29 54.3444C111.29 54.3435 111.29 54.3427 111.29 54.3419C111.29 54.3411 111.29 54.3402 111.29 54.3394C111.29 54.3386 111.29 54.3378 111.29 54.3369C111.29 54.3361 111.29 54.3353 111.29 54.3345C111.29 54.3336 111.29 54.3328 111.29 54.332C111.29 54.3312 111.29 54.3303 111.29 54.3295C111.29 54.3287 111.29 54.3279 111.29 54.3271C111.29 54.3262 111.29 54.3254 111.29 54.3246C111.29 54.3238 111.29 54.323 111.29 54.3221C111.29 54.3213 111.29 54.3205 111.29 54.3197C111.29 54.3189 111.29 54.3181 111.29 54.3172C111.29 54.3164 111.29 54.3156 111.29 54.3148C111.29 54.314 111.29 54.3132 111.29 54.3123C111.29 54.3115 111.29 54.3107 111.29 54.3099C111.29 54.3091 111.29 54.3083 111.29 54.3075C111.29 54.3066 111.29 54.3058 111.29 54.305C111.29 54.3042 111.29 54.3034 111.29 54.3026C111.29 54.3018 111.29 54.301 111.29 54.3002C111.29 54.2993 111.29 54.2985 111.29 54.2977C111.29 54.2969 111.29 54.2961 111.29 54.2953C111.29 54.2945 111.29 54.2937 111.29 54.2929C111.29 54.2921 111.29 54.2913 111.29 54.2905C111.29 54.2897 111.29 54.2889 111.29 54.288C111.29 54.2872 111.29 54.2864 111.29 54.2856C111.29 54.2848 111.29 54.284 111.29 54.2832C111.29 54.2824 111.29 54.2816 111.29 54.2808C111.29 54.28 111.29 54.2792 111.29 54.2784C111.29 54.2776 111.29 54.2768 111.29 54.276C111.29 54.2752 111.29 54.2744 111.29 54.2736C111.29 54.2728 111.29 54.272 111.29 54.2712C111.29 54.2704 111.29 54.2696 111.29 54.2688C111.29 54.268 111.29 54.2672 111.29 54.2664C111.29 54.2656 111.29 54.2649 111.29 54.2641C111.29 54.2633 111.29 54.2625 111.29 54.2617C111.29 54.2609 111.29 54.2601 111.29 54.2593C111.29 54.2585 111.29 54.2577 111.29 54.2569C111.29 54.2561 111.29 54.2553 111.29 54.2546C111.29 54.2538 111.29 54.253 111.29 54.2522C111.29 54.2514 111.29 54.2506 111.29 54.2498C111.29 54.249 111.29 54.2482 111.29 54.2475C111.29 54.2467 111.29 54.2459 111.29 54.2451C111.29 54.2443 111.29 54.2435 111.29 54.2427C111.29 54.2419 111.29 54.2412 111.29 54.2404C111.29 54.2396 111.29 54.2388 111.29 54.238C111.29 54.2372 111.29 54.2365 111.29 54.2357C111.29 54.2349 111.29 54.2341 111.29 54.2333C111.29 54.2326 111.29 54.2318 111.29 54.231C111.29 54.2302 111.29 54.2294 111.29 54.2287C111.29 54.2279 111.29 54.2271 111.29 54.2263C111.29 54.2255 111.29 54.2248 111.29 54.224C111.29 54.2232 111.29 54.2224 111.29 54.2217C111.29 54.2209 111.29 54.2201 111.29 54.2193C111.29 54.2186 111.29 54.2178 111.29 54.217C111.29 54.2162 111.29 54.2155 111.29 54.2147C111.29 54.2139 111.29 54.2131 111.29 54.2124C111.29 54.2116 111.29 54.2108 111.29 54.21C111.29 54.2093 111.29 54.2085 111.29 54.2077C111.29 54.207 111.29 54.2062 111.29 54.2054C111.29 54.2047 111.29 54.2039 111.29 54.2031C111.29 54.2024 111.29 54.2016 111.29 54.2008C111.29 54.2001 111.29 54.1993 111.29 54.1985C111.29 54.1978 111.29 54.197 111.29 54.1962C111.29 54.1955 111.29 54.1947 111.29 54.1939C111.29 54.1932 111.29 54.1924 111.29 54.1916C111.29 54.1909 111.29 54.1901 111.29 54.1894C111.29 54.1886 111.29 54.1878 111.29 54.1871C111.29 54.1863 111.29 54.1855 111.29 54.1848C111.29 54.184 111.29 54.1833 111.29 54.1825C111.29 54.1818 111.29 54.181 111.29 54.1802C111.29 54.1795 111.29 54.1787 111.29 54.178C111.29 54.1772 111.29 54.1764 111.29 54.1757C111.29 54.1749 111.29 54.1742 111.29 54.1734C111.29 54.1727 111.29 54.1719 111.29 54.1712C111.29 54.1704 111.29 54.1697 111.29 54.1689C111.29 54.1682 111.29 54.1674 111.29 54.1666C111.29 54.1659 111.29 54.1651 111.29 54.1644C111.29 54.1636 111.29 54.1629 111.29 54.1621C111.29 54.1614 111.29 54.1606 111.29 54.1599C111.29 54.1591 111.29 54.1584 111.29 54.1577C111.29 54.1569 111.29 54.1562 111.29 54.1554C111.29 54.1547 111.29 54.1539 111.29 54.1532C111.29 54.1524 111.29 54.1517 111.29 54.1509C111.29 54.1502 111.29 54.1494 111.29 54.1487C111.29 54.148 111.29 54.1472 111.29 54.1465C111.29 54.1457 111.29 54.145 111.29 54.1442C111.29 54.1435 111.29 54.1428 111.29 54.142C111.29 54.1413 111.29 54.1405 111.29 54.1398C111.29 54.1391 111.29 54.1383 111.29 54.1376C111.29 54.1368 111.29 54.1361 111.29 54.1354C111.29 54.1346 111.29 54.1339 111.29 54.1332C111.29 54.1324 111.29 54.1317 111.29 54.131C111.29 54.1302 111.29 54.1295 111.29 54.1287C111.29 54.128 111.29 54.1273 111.29 54.1265C111.29 54.1258 111.29 54.1251 111.29 54.1243C111.29 54.1236 111.29 54.1229 111.29 54.1222C111.29 54.1214 111.29 54.1207 111.29 54.12C111.29 54.1192 111.29 54.1185 111.29 54.1178C111.29 54.117 111.29 54.1163 111.29 54.1156C111.29 54.1149 111.29 54.1141 111.29 54.1134C111.29 54.1127 111.29 54.1119 111.29 54.1112C111.29 54.1105 111.29 54.1098 111.29 54.109C111.29 54.1083 111.29 54.1076 111.29 54.1069C111.29 54.1061 111.29 54.1054 111.29 54.1047C111.29 54.104 111.29 54.1033 111.29 54.1025C111.29 54.1018 111.29 54.1011 111.29 54.1004C111.29 54.0996 111.29 54.0989 111.29 54.0982C111.29 54.0975 111.29 54.0968 111.29 54.096C111.29 54.0953 111.29 54.0946 111.29 54.0939C111.29 54.0932 111.29 54.0925 111.29 54.0917C111.29 54.091 111.29 54.0903 111.29 54.0896C111.29 54.0889 111.29 54.0882 111.29 54.0874C111.29 54.0867 111.29 54.086 111.29 54.0853C111.29 54.0846 111.29 54.0839 111.29 54.0832C111.29 54.0824 111.29 54.0817 111.29 54.081C111.29 54.0803 111.29 54.0796 111.29 54.0789C111.29 54.0782 111.29 54.0775 111.29 54.0767C111.29 54.076 111.29 54.0753 111.29 54.0746C111.29 54.0739 111.29 54.0732 111.29 54.0725C111.29 54.0718 111.29 54.0711 111.29 54.0704C111.29 54.0697 111.29 54.069 111.29 54.0683C111.29 54.0675 111.29 54.0668 111.29 54.0661C111.29 54.0654 111.29 54.0647 111.29 54.064C111.29 54.0633 111.29 54.0626 111.29 54.0619C111.29 54.0612 111.29 54.0605 111.29 54.0598C111.29 54.0591 111.29 54.0584 111.29 54.0577C111.29 54.057 111.29 54.0563 111.29 54.0556C111.29 54.0549 111.29 54.0542 111.29 54.0535C111.29 54.0528 111.29 54.0521 111.29 54.0514C111.29 54.0507 111.29 54.05 111.29 54.0493C111.29 54.0486 111.29 54.0479 111.29 54.0472C111.29 54.0465 111.29 54.0458 111.29 54.0451C111.29 54.0444 111.29 54.0438 111.29 54.0431C111.29 54.0424 111.29 54.0417 111.29 54.041C111.29 54.0403 111.29 54.0396 111.29 54.0389C111.29 54.0382 111.29 54.0375 111.29 54.0368C111.29 54.0361 111.29 54.0354 111.29 54.0348C111.29 54.0341 111.29 54.0334 111.29 54.0327C111.29 54.032 111.29 54.0313 111.29 54.0306C111.29 54.0299 111.29 54.0292 111.29 54.0286C111.29 54.0279 111.29 54.0272 111.29 54.0265C111.29 54.0258 111.29 54.0251 111.29 54.0244C111.29 54.0238 111.29 54.0231 111.29 54.0224C111.29 54.0217 111.29 54.021 111.29 54.0203C111.29 54.0197 111.29 54.019 111.29 54.0183C111.29 54.0176 111.29 54.0169 111.29 54.0163C111.29 54.0156 111.29 54.0149 111.29 54.0142C111.29 54.0135 111.29 54.0129 111.29 54.0122C111.29 54.0115 111.29 54.0108 111.29 54.0101C111.29 54.0095 111.29 54.0088 111.29 54.0081C111.29 54.0074 111.29 54.0068 111.29 54.0061C111.29 54.0054 111.29 54.0047 111.29 54.0041C111.29 54.0034 111.29 54.0027 111.29 54.002C111.29 54.0014 111.29 54.0007 111.29 54C111.29 53.9993 111.29 53.9987 111.29 53.998C111.29 53.9973 111.29 53.9967 111.29 53.996C111.29 53.9953 111.29 53.9947 111.29 53.994C111.29 53.9933 111.29 53.9926 111.29 53.992C111.29 53.9913 111.29 53.9906 111.29 53.99C111.29 53.9893 111.29 53.9886 111.29 53.988C111.29 53.9873 111.29 53.9866 111.29 53.986C111.29 53.9853 111.29 53.9846 111.29 53.984C111.29 53.9833 111.29 53.9827 111.29 53.982C111.29 53.9813 111.29 53.9807 111.29 53.98C111.29 53.9793 111.29 53.9787 111.29 53.978C111.29 53.9774 111.29 53.9767 111.29 53.976C111.29 53.9754 111.29 53.9747 111.29 53.9741C111.29 53.9734 111.29 53.9727 111.29 53.9721C111.29 53.9714 111.29 53.9708 111.29 53.9701C111.29 53.9695 111.29 53.9688 111.29 53.9681C111.29 53.9675 111.29 53.9668 111.29 53.9662C111.29 53.9655 111.29 53.9649 111.29 53.9642C111.29 53.9636 111.29 53.9629 111.29 53.9622C111.29 53.9616 111.29 53.9609 111.29 53.9603C111.29 53.9596 111.29 53.959 111.29 53.9583C111.29 53.9577 111.29 53.957 111.29 53.9564C111.29 53.9557 111.29 53.9551 111.29 53.9544C111.29 53.9538 111.29 53.9531 111.29 53.9525C111.29 53.9518 111.29 53.9512 111.29 53.9505C111.29 53.9499 111.29 53.9493 111.29 53.9486C111.29 53.948 111.29 53.9473 111.29 53.9467C111.29 53.946 111.29 53.9454 111.29 53.9447C111.29 53.9441 111.29 53.9434 111.29 53.9428C111.29 53.9422 111.29 53.9415 111.29 53.9409C111.29 53.9402 111.29 53.9396 111.29 53.939C111.29 53.9383 111.29 53.9377 111.29 53.937C111.29 53.9364 111.29 53.9358 111.29 53.9351C111.29 53.9345 111.29 53.9338 111.29 53.9332C111.29 53.9326 111.29 53.9319 111.29 53.9313C111.29 53.9307 111.29 53.93 111.29 53.9294C111.29 53.9287 111.29 53.9281 111.29 53.9275C111.29 53.9268 111.29 53.9262 111.29 53.9256C111.29 53.9249 111.29 53.9243 111.29 53.9237C111.29 53.923 111.29 53.9224 111.29 53.9218C111.29 53.9211 111.29 53.9205 111.29 53.9199C111.29 53.9193 111.29 53.9186 111.29 53.918C111.29 53.9174 111.29 53.9167 111.29 53.9161C111.29 53.9155 111.29 53.9148 111.29 53.9142C111.29 53.9136 111.29 53.913 111.29 53.9123C111.29 53.9117 111.29 53.9111 111.29 53.9105C111.29 53.9098 111.29 53.9092 111.29 53.9086C111.29 53.908 111.29 53.9073 111.29 53.9067C111.29 53.9061 111.29 53.9055 111.29 53.9048C111.29 53.9042 111.29 53.9036 111.29 53.903C111.29 53.9024 111.29 53.9017 111.29 53.9011C111.29 53.9005 111.29 53.8999 111.29 53.8993C111.29 53.8986 111.29 53.898 111.29 53.8974C111.29 53.8968 111.29 53.8962 111.29 53.8955C111.29 53.8949 111.29 53.8943 111.29 53.8937C111.29 53.8931 111.29 53.8925 111.29 53.8918C111.29 53.8912 111.29 53.8906 111.29 53.89C111.29 53.8894 111.29 53.8888 111.29 53.8882C111.29 53.8875 111.29 53.8869 111.29 53.8863C111.29 53.8857 111.29 53.8851 111.29 53.8845C111.29 53.8839 111.29 53.8833 111.29 53.8826C111.29 53.882 111.29 53.8814 111.29 53.8808C111.29 53.8802 111.29 53.8796 111.29 53.879C111.29 53.8784 111.29 53.8778 111.29 53.8772C111.29 53.8766 111.29 53.876 111.29 53.8754C111.29 53.8747 111.29 53.8741 111.29 53.8735C111.29 53.8729 111.29 53.8723 111.29 53.8717C111.29 53.8711 111.29 53.8705 111.29 53.8699C111.29 53.8693 111.29 53.8687 111.29 53.8681C111.29 53.8675 111.29 53.8669 111.29 53.8663C111.29 53.8657 111.29 53.8651 111.29 53.8645C111.29 53.8639 111.29 53.8633 111.29 53.8627C111.29 53.8621 111.29 53.8615 111.29 53.8609C111.29 53.8603 111.29 53.8597 111.29 53.8591C111.29 53.8585 111.29 53.8579 111.29 53.8573C111.29 53.8567 111.29 53.8561 111.29 53.8555C111.29 53.8549 111.29 53.8543 111.29 53.8537C111.29 53.8531 111.29 53.8526 111.29 53.852C111.29 53.8514 111.29 53.8508 111.29 53.8502C111.29 53.8496 111.29 53.849 111.29 53.8484C111.29 53.8478 111.29 53.8472 111.29 53.8466C111.29 53.846 111.29 53.8455 111.29 53.8449C111.29 53.8443 111.29 53.8437 111.29 53.8431C111.29 53.8425 111.29 53.8419 111.29 53.8413C111.29 53.8408 111.29 53.8402 111.29 53.8396C111.29 53.839 111.29 53.8384 111.29 53.8378C111.29 53.8372 111.29 53.8367 111.29 53.8361C111.29 53.8355 111.29 53.8349 111.29 53.8343C111.29 53.8337 111.29 53.8332 111.29 53.8326C111.29 53.832 111.29 53.8314 111.29 53.8308C111.29 53.8303 111.29 53.8297 111.29 53.8291C111.29 53.8285 111.29 53.8279 111.29 53.8274C111.29 53.8268 111.29 53.8262 111.29 53.8256C111.29 53.825 111.29 53.8245 111.29 53.8239C111.29 53.8233 111.29 53.8227 111.29 53.8222C111.29 53.8216 111.29 53.821 111.29 53.8204C111.29 53.8199 111.29 53.8193 111.29 53.8187C111.29 53.8181 111.29 53.8176 111.29 53.817C111.29 53.8164 111.29 53.8158 111.29 53.8153C111.29 53.8147 111.29 53.8141 111.29 53.8136C111.29 53.813 111.29 53.8124 111.29 53.8118C111.29 53.8113 111.29 53.8107 111.29 53.8101C111.29 53.8096 111.29 53.809 111.29 53.8084C111.29 53.8079 111.29 53.8073 111.29 53.8067C111.29 53.8062 111.29 53.8056 111.29 53.805C111.29 53.8045 111.29 53.8039 111.29 53.8033C111.29 53.8028 111.29 53.8022 111.29 53.8017C111.29 53.8011 111.29 53.8005 111.29 53.8C111.29 53.7994 111.29 53.7988 111.29 53.7983C111.29 53.7977 111.29 53.7972 111.29 53.7966C111.29 53.796 111.29 53.7955 111.29 53.7949C111.29 53.7944 111.29 53.7938 111.29 53.7932C111.29 53.7927 111.29 53.7921 111.29 53.7916C111.29 53.791 111.29 53.7904 111.29 53.7899C111.29 53.7893 111.29 53.7888 111.29 53.7882C111.29 53.7877 111.29 53.7871 111.29 53.7866C111.29 53.786 111.29 53.7854 111.29 53.7849C111.29 53.7843 111.29 53.7838 111.29 53.7832C111.29 53.7827 111.29 53.7821 111.29 53.7816C111.29 53.781 111.29 53.7805 111.29 53.7799C111.29 53.7794 111.29 53.7788 111.29 53.7783C111.29 53.7777 111.29 53.7772 111.29 53.7766C111.29 53.7761 111.29 53.7755 111.29 53.775C111.29 53.7744 111.29 53.7739 111.29 53.7733C111.29 53.7728 111.29 53.7723 111.29 53.7717C111.29 53.7712 111.29 53.7706 111.29 53.7701C111.29 53.7695 111.29 53.769 111.29 53.7684C111.29 53.7679 111.29 53.7674 111.29 53.7668C111.29 53.7663 111.29 53.7657 111.29 53.7652C111.29 53.7647 111.29 53.7641 111.29 53.7636C111.29 53.763 111.29 53.7625 111.29 53.762C111.29 53.7614 111.29 53.7609 111.29 53.7603C111.29 53.7598 111.29 53.7593 111.29 53.7587C111.29 53.7582 111.29 53.7577 111.29 53.7571C111.29 53.7566 111.29 53.756 111.29 53.7555C111.29 53.755 111.29 53.7544 111.29 53.7539C111.29 53.7534 111.29 53.7528 111.29 53.7523C111.29 53.7518 111.29 53.7512 111.29 53.7507C111.29 53.7502 111.29 53.7496 111.29 53.7491C111.29 53.7486 111.29 53.748 111.29 53.7475C111.29 53.747 111.29 53.7465 111.29 53.7459C111.29 53.7454 111.29 53.7449 111.29 53.7443C111.29 53.7438 111.29 53.7433 111.29 53.7428C111.29 53.7422 111.29 53.7417 111.29 53.7412C111.29 53.7407 111.29 53.7401 111.29 53.7396C111.29 53.7391 111.29 53.7386 111.29 53.738C111.29 53.7375 111.29 53.737 111.29 53.7365C111.29 53.7359 111.29 53.7354 111.29 53.7349C111.29 53.7344 111.29 53.7339 111.29 53.7333H107.29C107.29 53.7339 107.29 53.7344 107.29 53.7349C107.29 53.7354 107.29 53.7359 107.29 53.7365C107.29 53.737 107.29 53.7375 107.29 53.738C107.29 53.7386 107.29 53.7391 107.29 53.7396C107.29 53.7401 107.29 53.7407 107.29 53.7412C107.29 53.7417 107.29 53.7422 107.29 53.7428C107.29 53.7433 107.29 53.7438 107.29 53.7443C107.29 53.7449 107.29 53.7454 107.29 53.7459C107.29 53.7465 107.29 53.747 107.29 53.7475C107.29 53.748 107.29 53.7486 107.29 53.7491C107.29 53.7496 107.29 53.7502 107.29 53.7507C107.29 53.7512 107.29 53.7518 107.29 53.7523C107.29 53.7528 107.29 53.7534 107.29 53.7539C107.29 53.7544 107.29 53.755 107.29 53.7555C107.29 53.756 107.29 53.7566 107.29 53.7571C107.29 53.7577 107.29 53.7582 107.29 53.7587C107.29 53.7593 107.29 53.7598 107.29 53.7603C107.29 53.7609 107.29 53.7614 107.29 53.762C107.29 53.7625 107.29 53.763 107.29 53.7636C107.29 53.7641 107.29 53.7647 107.29 53.7652C107.29 53.7657 107.29 53.7663 107.29 53.7668C107.29 53.7674 107.29 53.7679 107.29 53.7684C107.29 53.769 107.29 53.7695 107.29 53.7701C107.29 53.7706 107.29 53.7712 107.29 53.7717C107.29 53.7723 107.29 53.7728 107.29 53.7733C107.29 53.7739 107.29 53.7744 107.29 53.775C107.29 53.7755 107.29 53.7761 107.29 53.7766C107.29 53.7772 107.29 53.7777 107.29 53.7783C107.29 53.7788 107.29 53.7794 107.29 53.7799C107.29 53.7805 107.29 53.781 107.29 53.7816C107.29 53.7821 107.29 53.7827 107.29 53.7832C107.29 53.7838 107.29 53.7843 107.29 53.7849C107.29 53.7854 107.29 53.786 107.29 53.7866C107.29 53.7871 107.29 53.7877 107.29 53.7882C107.29 53.7888 107.29 53.7893 107.29 53.7899C107.29 53.7904 107.29 53.791 107.29 53.7916C107.29 53.7921 107.29 53.7927 107.29 53.7932C107.29 53.7938 107.29 53.7944 107.29 53.7949C107.29 53.7955 107.29 53.796 107.29 53.7966C107.29 53.7972 107.29 53.7977 107.29 53.7983C107.29 53.7988 107.29 53.7994 107.29 53.8C107.29 53.8005 107.29 53.8011 107.29 53.8017C107.29 53.8022 107.29 53.8028 107.29 53.8033C107.29 53.8039 107.29 53.8045 107.29 53.805C107.29 53.8056 107.29 53.8062 107.29 53.8067C107.29 53.8073 107.29 53.8079 107.29 53.8084C107.29 53.809 107.29 53.8096 107.29 53.8101C107.29 53.8107 107.29 53.8113 107.29 53.8118C107.29 53.8124 107.29 53.813 107.29 53.8136C107.29 53.8141 107.29 53.8147 107.29 53.8153C107.29 53.8158 107.29 53.8164 107.29 53.817C107.29 53.8176 107.29 53.8181 107.29 53.8187C107.29 53.8193 107.29 53.8199 107.29 53.8204C107.29 53.821 107.29 53.8216 107.29 53.8222C107.29 53.8227 107.29 53.8233 107.29 53.8239C107.29 53.8245 107.29 53.825 107.29 53.8256C107.29 53.8262 107.29 53.8268 107.29 53.8274C107.29 53.8279 107.29 53.8285 107.29 53.8291C107.29 53.8297 107.29 53.8303 107.29 53.8308C107.29 53.8314 107.29 53.832 107.29 53.8326C107.29 53.8332 107.29 53.8337 107.29 53.8343C107.29 53.8349 107.29 53.8355 107.29 53.8361C107.29 53.8367 107.29 53.8372 107.29 53.8378C107.29 53.8384 107.29 53.839 107.29 53.8396C107.29 53.8402 107.29 53.8408 107.29 53.8413C107.29 53.8419 107.29 53.8425 107.29 53.8431C107.29 53.8437 107.29 53.8443 107.29 53.8449C107.29 53.8455 107.29 53.846 107.29 53.8466C107.29 53.8472 107.29 53.8478 107.29 53.8484C107.29 53.849 107.29 53.8496 107.29 53.8502C107.29 53.8508 107.29 53.8514 107.29 53.852C107.29 53.8526 107.29 53.8531 107.29 53.8537C107.29 53.8543 107.29 53.8549 107.29 53.8555C107.29 53.8561 107.29 53.8567 107.29 53.8573C107.29 53.8579 107.29 53.8585 107.29 53.8591C107.29 53.8597 107.29 53.8603 107.29 53.8609C107.29 53.8615 107.29 53.8621 107.29 53.8627C107.29 53.8633 107.29 53.8639 107.29 53.8645C107.29 53.8651 107.29 53.8657 107.29 53.8663C107.29 53.8669 107.29 53.8675 107.29 53.8681C107.29 53.8687 107.29 53.8693 107.29 53.8699C107.29 53.8705 107.29 53.8711 107.29 53.8717C107.29 53.8723 107.29 53.8729 107.29 53.8735C107.29 53.8741 107.29 53.8747 107.29 53.8754C107.29 53.876 107.29 53.8766 107.29 53.8772C107.29 53.8778 107.29 53.8784 107.29 53.879C107.29 53.8796 107.29 53.8802 107.29 53.8808C107.29 53.8814 107.29 53.882 107.29 53.8826C107.29 53.8833 107.29 53.8839 107.29 53.8845C107.29 53.8851 107.29 53.8857 107.29 53.8863C107.29 53.8869 107.29 53.8875 107.29 53.8882C107.29 53.8888 107.29 53.8894 107.29 53.89C107.29 53.8906 107.29 53.8912 107.29 53.8918C107.29 53.8925 107.29 53.8931 107.29 53.8937C107.29 53.8943 107.29 53.8949 107.29 53.8955C107.29 53.8962 107.29 53.8968 107.29 53.8974C107.29 53.898 107.29 53.8986 107.29 53.8993C107.29 53.8999 107.29 53.9005 107.29 53.9011C107.29 53.9017 107.29 53.9024 107.29 53.903C107.29 53.9036 107.29 53.9042 107.29 53.9048C107.29 53.9055 107.29 53.9061 107.29 53.9067C107.29 53.9073 107.29 53.908 107.29 53.9086C107.29 53.9092 107.29 53.9098 107.29 53.9105C107.29 53.9111 107.29 53.9117 107.29 53.9123C107.29 53.913 107.29 53.9136 107.29 53.9142C107.29 53.9148 107.29 53.9155 107.29 53.9161C107.29 53.9167 107.29 53.9174 107.29 53.918C107.29 53.9186 107.29 53.9193 107.29 53.9199C107.29 53.9205 107.29 53.9211 107.29 53.9218C107.29 53.9224 107.29 53.923 107.29 53.9237C107.29 53.9243 107.29 53.9249 107.29 53.9256C107.29 53.9262 107.29 53.9268 107.29 53.9275C107.29 53.9281 107.29 53.9287 107.29 53.9294C107.29 53.93 107.29 53.9307 107.29 53.9313C107.29 53.9319 107.29 53.9326 107.29 53.9332C107.29 53.9338 107.29 53.9345 107.29 53.9351C107.29 53.9358 107.29 53.9364 107.29 53.937C107.29 53.9377 107.29 53.9383 107.29 53.939C107.29 53.9396 107.29 53.9402 107.29 53.9409C107.29 53.9415 107.29 53.9422 107.29 53.9428C107.29 53.9434 107.29 53.9441 107.29 53.9447C107.29 53.9454 107.29 53.946 107.29 53.9467C107.29 53.9473 107.29 53.948 107.29 53.9486C107.29 53.9493 107.29 53.9499 107.29 53.9505C107.29 53.9512 107.29 53.9518 107.29 53.9525C107.29 53.9531 107.29 53.9538 107.29 53.9544C107.29 53.9551 107.29 53.9557 107.29 53.9564C107.29 53.957 107.29 53.9577 107.29 53.9583C107.29 53.959 107.29 53.9596 107.29 53.9603C107.29 53.9609 107.29 53.9616 107.29 53.9622C107.29 53.9629 107.29 53.9636 107.29 53.9642C107.29 53.9649 107.29 53.9655 107.29 53.9662C107.29 53.9668 107.29 53.9675 107.29 53.9681C107.29 53.9688 107.29 53.9695 107.29 53.9701C107.29 53.9708 107.29 53.9714 107.29 53.9721C107.29 53.9727 107.29 53.9734 107.29 53.9741C107.29 53.9747 107.29 53.9754 107.29 53.976C107.29 53.9767 107.29 53.9774 107.29 53.978C107.29 53.9787 107.29 53.9793 107.29 53.98C107.29 53.9807 107.29 53.9813 107.29 53.982C107.29 53.9827 107.29 53.9833 107.29 53.984C107.29 53.9846 107.29 53.9853 107.29 53.986C107.29 53.9866 107.29 53.9873 107.29 53.988C107.29 53.9886 107.29 53.9893 107.29 53.99C107.29 53.9906 107.29 53.9913 107.29 53.992C107.29 53.9926 107.29 53.9933 107.29 53.994C107.29 53.9947 107.29 53.9953 107.29 53.996C107.29 53.9967 107.29 53.9973 107.29 53.998C107.29 53.9987 107.29 53.9993 107.29 54C107.29 54.0007 107.29 54.0014 107.29 54.002C107.29 54.0027 107.29 54.0034 107.29 54.0041C107.29 54.0047 107.29 54.0054 107.29 54.0061C107.29 54.0068 107.29 54.0074 107.29 54.0081C107.29 54.0088 107.29 54.0095 107.29 54.0101C107.29 54.0108 107.29 54.0115 107.29 54.0122C107.29 54.0129 107.29 54.0135 107.29 54.0142C107.29 54.0149 107.29 54.0156 107.29 54.0163C107.29 54.0169 107.29 54.0176 107.29 54.0183C107.29 54.019 107.29 54.0197 107.29 54.0203C107.29 54.021 107.29 54.0217 107.29 54.0224C107.29 54.0231 107.29 54.0238 107.29 54.0244C107.29 54.0251 107.29 54.0258 107.29 54.0265C107.29 54.0272 107.29 54.0279 107.29 54.0286C107.29 54.0292 107.29 54.0299 107.29 54.0306C107.29 54.0313 107.29 54.032 107.29 54.0327C107.29 54.0334 107.29 54.0341 107.29 54.0348C107.29 54.0354 107.29 54.0361 107.29 54.0368C107.29 54.0375 107.29 54.0382 107.29 54.0389C107.29 54.0396 107.29 54.0403 107.29 54.041C107.29 54.0417 107.29 54.0424 107.29 54.0431C107.29 54.0438 107.29 54.0444 107.29 54.0451C107.29 54.0458 107.29 54.0465 107.29 54.0472C107.29 54.0479 107.29 54.0486 107.29 54.0493C107.29 54.05 107.29 54.0507 107.29 54.0514C107.29 54.0521 107.29 54.0528 107.29 54.0535C107.29 54.0542 107.29 54.0549 107.29 54.0556C107.29 54.0563 107.29 54.057 107.29 54.0577C107.29 54.0584 107.29 54.0591 107.29 54.0598C107.29 54.0605 107.29 54.0612 107.29 54.0619C107.29 54.0626 107.29 54.0633 107.29 54.064C107.29 54.0647 107.29 54.0654 107.29 54.0661C107.29 54.0668 107.29 54.0675 107.29 54.0683C107.29 54.069 107.29 54.0697 107.29 54.0704C107.29 54.0711 107.29 54.0718 107.29 54.0725C107.29 54.0732 107.29 54.0739 107.29 54.0746C107.29 54.0753 107.29 54.076 107.29 54.0767C107.29 54.0775 107.29 54.0782 107.29 54.0789C107.29 54.0796 107.29 54.0803 107.29 54.081C107.29 54.0817 107.29 54.0824 107.29 54.0832C107.29 54.0839 107.29 54.0846 107.29 54.0853C107.29 54.086 107.29 54.0867 107.29 54.0874C107.29 54.0882 107.29 54.0889 107.29 54.0896C107.29 54.0903 107.29 54.091 107.29 54.0917C107.29 54.0925 107.29 54.0932 107.29 54.0939C107.29 54.0946 107.29 54.0953 107.29 54.096C107.29 54.0968 107.29 54.0975 107.29 54.0982C107.29 54.0989 107.29 54.0996 107.29 54.1004C107.29 54.1011 107.29 54.1018 107.29 54.1025C107.29 54.1033 107.29 54.104 107.29 54.1047C107.29 54.1054 107.29 54.1061 107.29 54.1069C107.29 54.1076 107.29 54.1083 107.29 54.109C107.29 54.1098 107.29 54.1105 107.29 54.1112C107.29 54.1119 107.29 54.1127 107.29 54.1134C107.29 54.1141 107.29 54.1149 107.29 54.1156C107.29 54.1163 107.29 54.117 107.29 54.1178C107.29 54.1185 107.29 54.1192 107.29 54.12C107.29 54.1207 107.29 54.1214 107.29 54.1222C107.29 54.1229 107.29 54.1236 107.29 54.1243C107.29 54.1251 107.29 54.1258 107.29 54.1265C107.29 54.1273 107.29 54.128 107.29 54.1287C107.29 54.1295 107.29 54.1302 107.29 54.131C107.29 54.1317 107.29 54.1324 107.29 54.1332C107.29 54.1339 107.29 54.1346 107.29 54.1354C107.29 54.1361 107.29 54.1368 107.29 54.1376C107.29 54.1383 107.29 54.1391 107.29 54.1398C107.29 54.1405 107.29 54.1413 107.29 54.142C107.29 54.1428 107.29 54.1435 107.29 54.1442C107.29 54.145 107.29 54.1457 107.29 54.1465C107.29 54.1472 107.29 54.148 107.29 54.1487C107.29 54.1494 107.29 54.1502 107.29 54.1509C107.29 54.1517 107.29 54.1524 107.29 54.1532C107.29 54.1539 107.29 54.1547 107.29 54.1554C107.29 54.1562 107.29 54.1569 107.29 54.1577C107.29 54.1584 107.29 54.1591 107.29 54.1599C107.29 54.1606 107.29 54.1614 107.29 54.1621C107.29 54.1629 107.29 54.1636 107.29 54.1644C107.29 54.1651 107.29 54.1659 107.29 54.1666C107.29 54.1674 107.29 54.1682 107.29 54.1689C107.29 54.1697 107.29 54.1704 107.29 54.1712C107.29 54.1719 107.29 54.1727 107.29 54.1734C107.29 54.1742 107.29 54.1749 107.29 54.1757C107.29 54.1764 107.29 54.1772 107.29 54.178C107.29 54.1787 107.29 54.1795 107.29 54.1802C107.29 54.181 107.29 54.1818 107.29 54.1825C107.29 54.1833 107.29 54.184 107.29 54.1848C107.29 54.1855 107.29 54.1863 107.29 54.1871C107.29 54.1878 107.29 54.1886 107.29 54.1894C107.29 54.1901 107.29 54.1909 107.29 54.1916C107.29 54.1924 107.29 54.1932 107.29 54.1939C107.29 54.1947 107.29 54.1955 107.29 54.1962C107.29 54.197 107.29 54.1978 107.29 54.1985C107.29 54.1993 107.29 54.2001 107.29 54.2008C107.29 54.2016 107.29 54.2024 107.29 54.2031C107.29 54.2039 107.29 54.2047 107.29 54.2054C107.29 54.2062 107.29 54.207 107.29 54.2077C107.29 54.2085 107.29 54.2093 107.29 54.21C107.29 54.2108 107.29 54.2116 107.29 54.2124C107.29 54.2131 107.29 54.2139 107.29 54.2147C107.29 54.2155 107.29 54.2162 107.29 54.217C107.29 54.2178 107.29 54.2186 107.29 54.2193C107.29 54.2201 107.29 54.2209 107.29 54.2217C107.29 54.2224 107.29 54.2232 107.29 54.224C107.29 54.2248 107.29 54.2255 107.29 54.2263C107.29 54.2271 107.29 54.2279 107.29 54.2287C107.29 54.2294 107.29 54.2302 107.29 54.231C107.29 54.2318 107.29 54.2326 107.29 54.2333C107.29 54.2341 107.29 54.2349 107.29 54.2357C107.29 54.2365 107.29 54.2372 107.29 54.238C107.29 54.2388 107.29 54.2396 107.29 54.2404C107.29 54.2412 107.29 54.2419 107.29 54.2427C107.29 54.2435 107.29 54.2443 107.29 54.2451C107.29 54.2459 107.29 54.2467 107.29 54.2475C107.29 54.2482 107.29 54.249 107.29 54.2498C107.29 54.2506 107.29 54.2514 107.29 54.2522C107.29 54.253 107.29 54.2538 107.29 54.2546C107.29 54.2553 107.29 54.2561 107.29 54.2569C107.29 54.2577 107.29 54.2585 107.29 54.2593C107.29 54.2601 107.29 54.2609 107.29 54.2617C107.29 54.2625 107.29 54.2633 107.29 54.2641C107.29 54.2649 107.29 54.2656 107.29 54.2664C107.29 54.2672 107.29 54.268 107.29 54.2688C107.29 54.2696 107.29 54.2704 107.29 54.2712C107.29 54.272 107.29 54.2728 107.29 54.2736C107.29 54.2744 107.29 54.2752 107.29 54.276C107.29 54.2768 107.29 54.2776 107.29 54.2784C107.29 54.2792 107.29 54.28 107.29 54.2808C107.29 54.2816 107.29 54.2824 107.29 54.2832C107.29 54.284 107.29 54.2848 107.29 54.2856C107.29 54.2864 107.29 54.2872 107.29 54.288C107.29 54.2889 107.29 54.2897 107.29 54.2905C107.29 54.2913 107.29 54.2921 107.29 54.2929C107.29 54.2937 107.29 54.2945 107.29 54.2953C107.29 54.2961 107.29 54.2969 107.29 54.2977C107.29 54.2985 107.29 54.2993 107.29 54.3002C107.29 54.301 107.29 54.3018 107.29 54.3026C107.29 54.3034 107.29 54.3042 107.29 54.305C107.29 54.3058 107.29 54.3066 107.29 54.3075C107.29 54.3083 107.29 54.3091 107.29 54.3099C107.29 54.3107 107.29 54.3115 107.29 54.3123C107.29 54.3132 107.29 54.314 107.29 54.3148C107.29 54.3156 107.29 54.3164 107.29 54.3172C107.29 54.3181 107.29 54.3189 107.29 54.3197C107.29 54.3205 107.29 54.3213 107.29 54.3221C107.29 54.323 107.29 54.3238 107.29 54.3246C107.29 54.3254 107.29 54.3262 107.29 54.3271C107.29 54.3279 107.29 54.3287 107.29 54.3295C107.29 54.3303 107.29 54.3312 107.29 54.332C107.29 54.3328 107.29 54.3336 107.29 54.3345C107.29 54.3353 107.29 54.3361 107.29 54.3369C107.29 54.3378 107.29 54.3386 107.29 54.3394C107.29 54.3402 107.29 54.3411 107.29 54.3419C107.29 54.3427 107.29 54.3435 107.29 54.3444C107.29 54.3452 107.29 54.346 107.29 54.3469C107.29 54.3477 107.29 54.3485 107.29 54.3493C107.29 54.3502 107.29 54.351 107.29 54.3518C107.29 54.3527 107.29 54.3535 107.29 54.3543C107.29 54.3552 107.29 54.356 107.29 54.3568C107.29 54.3577 107.29 54.3585 107.29 54.3593C107.29 54.3602 107.29 54.361 107.29 54.3618C107.29 54.3627 107.29 54.3635 107.29 54.3643C107.29 54.3652 107.29 54.366 107.29 54.3669C107.29 54.3677 107.29 54.3685 107.29 54.3694C107.29 54.3702 107.29 54.371 107.29 54.3719C107.29 54.3727 107.29 54.3736 107.29 54.3744C107.29 54.3752 107.29 54.3761 107.29 54.3769C107.29 54.3778 107.29 54.3786 107.29 54.3795C107.29 54.3803 107.29 54.3811 107.29 54.382C107.29 54.3828 107.29 54.3837 107.29 54.3845C107.29 54.3854 107.29 54.3862 107.29 54.387C107.29 54.3879 107.29 54.3887 107.29 54.3896C107.29 54.3904 107.29 54.3913 107.29 54.3921C107.29 54.393 107.29 54.3938 107.29 54.3947C107.29 54.3955 107.29 54.3964 107.29 54.3972C107.29 54.3981 107.29 54.3989 107.29 54.3998C107.29 54.4006 107.29 54.4015 107.29 54.4023C107.29 54.4032 107.29 54.404 107.29 54.4049C107.29 54.4057 107.29 54.4066 107.29 54.4074C107.29 54.4083 107.29 54.4091 107.29 54.41C107.29 54.4108 107.29 54.4117 107.29 54.4126C107.29 54.4134 107.29 54.4143 107.29 54.4151C107.29 54.416 107.29 54.4168 107.29 54.4177C107.29 54.4186 107.29 54.4194 107.29 54.4203C107.29 54.4211 107.29 54.422 107.29 54.4228C107.29 54.4237 107.29 54.4246 107.29 54.4254C107.29 54.4263 107.29 54.4272 107.29 54.428C107.29 54.4289 107.29 54.4297 107.29 54.4306C107.29 54.4315 107.29 54.4323 107.29 54.4332C107.29 54.4341 107.29 54.4349 107.29 54.4358C107.29 54.4366 107.29 54.4375 107.29 54.4384C107.29 54.4392 107.29 54.4401 107.29 54.441C107.29 54.4418 107.29 54.4427 107.29 54.4436C107.29 54.4444 107.29 54.4453 107.29 54.4462C107.29 54.4471 107.29 54.4479 107.29 54.4488C107.29 54.4497 107.29 54.4505 107.29 54.4514C107.29 54.4523 107.29 54.4531 107.29 54.454C107.29 54.4549 107.29 54.4558 107.29 54.4566C107.29 54.4575 107.29 54.4584 107.29 54.4593C107.29 54.4601 107.29 54.461 107.29 54.4619C107.29 54.4627 107.29 54.4636 107.29 54.4645C107.29 54.4654 107.29 54.4663 107.29 54.4671C107.29 54.468 107.29 54.4689 107.29 54.4698C107.29 54.4706 107.29 54.4715 107.29 54.4724C107.29 54.4733 107.29 54.4742 107.29 54.475C107.29 54.4759 107.29 54.4768 107.29 54.4777C107.29 54.4786 107.29 54.4794 107.29 54.4803C107.29 54.4812 107.29 54.4821 107.29 54.483C107.29 54.4839 107.29 54.4847 107.29 54.4856C107.29 54.4865 107.29 54.4874 107.29 54.4883C107.29 54.4892 107.29 54.49 107.29 54.4909C107.29 54.4918 107.29 54.4927 107.29 54.4936C107.29 54.4945 107.29 54.4954 107.29 54.4962C107.29 54.4971 107.29 54.498 107.29 54.4989C107.29 54.4998 107.29 54.5007 107.29 54.5016C107.29 54.5025 107.29 54.5034 107.29 54.5043C107.29 54.5051 107.29 54.506 107.29 54.5069C107.29 54.5078 107.29 54.5087 107.29 54.5096C107.29 54.5105 107.29 54.5114 107.29 54.5123C107.29 54.5132 107.29 54.5141 107.29 54.515C107.29 54.5159 107.29 54.5168 107.29 54.5177C107.29 54.5186 107.29 54.5195 107.29 54.5204C107.29 54.5212 107.29 54.5221 107.29 54.523C107.29 54.5239 107.29 54.5248 107.29 54.5257C107.29 54.5266 107.29 54.5275 107.29 54.5284C107.29 54.5293 107.29 54.5302 107.29 54.5311C107.29 54.532 107.29 54.5329 107.29 54.5338C107.29 54.5347 107.29 54.5357 107.29 54.5366C107.29 54.5375 107.29 54.5384 107.29 54.5393C107.29 54.5402 107.29 54.5411 107.29 54.542C107.29 54.5429 107.29 54.5438 107.29 54.5447C107.29 54.5456 107.29 54.5465 107.29 54.5474C107.29 54.5483 107.29 54.5492 107.29 54.5501C107.29 54.5511 107.29 54.552 107.29 54.5529C107.29 54.5538 107.29 54.5547 107.29 54.5556C107.29 54.5565 107.29 54.5574 107.29 54.5583C107.29 54.5592 107.29 54.5602 107.29 54.5611C107.29 54.562 107.29 54.5629 107.29 54.5638C107.29 54.5647 107.29 54.5656 107.29 54.5666C107.29 54.5675 107.29 54.5684 107.29 54.5693C107.29 54.5702 107.29 54.5711 107.29 54.572C107.29 54.573 107.29 54.5739 107.29 54.5748C107.29 54.5757 107.29 54.5766 107.29 54.5775C107.29 54.5785 107.29 54.5794 107.29 54.5803C107.29 54.5812 107.29 54.5821 107.29 54.5831C107.29 54.584 107.29 54.5849 107.29 54.5858C107.29 54.5868 107.29 54.5877 107.29 54.5886C107.29 54.5895 107.29 54.5904 107.29 54.5914C107.29 54.5923 107.29 54.5932 107.29 54.5941C107.29 54.5951 107.29 54.596 107.29 54.5969C107.29 54.5978 107.29 54.5988 107.29 54.5997C107.29 54.6006 107.29 54.6015 107.29 54.6025C107.29 54.6034 107.29 54.6043 107.29 54.6053C107.29 54.6062 107.29 54.6071 107.29 54.608C107.29 54.609 107.29 54.6099 107.29 54.6108C107.29 54.6118 107.29 54.6127 107.29 54.6136C107.29 54.6146 107.29 54.6155 107.29 54.6164C107.29 54.6174 107.29 54.6183 107.29 54.6192C107.29 54.6202 107.29 54.6211 107.29 54.622C107.29 54.623 107.29 54.6239 107.29 54.6248C107.29 54.6258 107.29 54.6267 107.29 54.6276C107.29 54.6286 107.29 54.6295 107.29 54.6305C107.29 54.6314 107.29 54.6323 107.29 54.6333C107.29 54.6342 107.29 54.6352 107.29 54.6361C107.29 54.637 107.29 54.638 107.29 54.6389C107.29 54.6399 107.29 54.6408 107.29 54.6417C107.29 54.6427 107.29 54.6436 107.29 54.6446C107.29 54.6455 107.29 54.6465 107.29 54.6474C107.29 54.6483 107.29 54.6493 107.29 54.6502C107.29 54.6512 107.29 54.6521 107.29 54.6531C107.29 54.654 107.29 54.655 107.29 54.6559C107.29 54.6569 107.29 54.6578 107.29 54.6587C107.29 54.6597 107.29 54.6606 107.29 54.6616C107.29 54.6625 107.29 54.6635 107.29 54.6644C107.29 54.6654 107.29 54.6663 107.29 54.6673C107.29 54.6682 107.29 54.6692 107.29 54.6701C107.29 54.6711 107.29 54.6721 107.29 54.673C107.29 54.674 107.29 54.6749 107.29 54.6759C107.29 54.6768 107.29 54.6778 107.29 54.6787C107.29 54.6797 107.29 54.6806 107.29 54.6816C107.29 54.6826 107.29 54.6835 107.29 54.6845C107.29 54.6854 107.29 54.6864 107.29 54.6873C107.29 54.6883 107.29 54.6893 107.29 54.6902C107.29 54.6912 107.29 54.6921 107.29 54.6931C107.29 54.6941 107.29 54.695 107.29 54.696C107.29 54.6969 107.29 54.6979 107.29 54.6989C107.29 54.6998 107.29 54.7008 107.29 54.7018C107.29 54.7027 107.29 54.7037 107.29 54.7046C107.29 54.7056 107.29 54.7066 107.29 54.7075C107.29 54.7085 107.29 54.7095 107.29 54.7104C107.29 54.7114 107.29 54.7124 107.29 54.7133C107.29 54.7143 107.29 54.7153 107.29 54.7162C107.29 54.7172 107.29 54.7182 107.29 54.7192C107.29 54.7201 107.29 54.7211 107.29 54.7221C107.29 54.723 107.29 54.724 107.29 54.725C107.29 54.7259 107.29 54.7269 107.29 54.7279C107.29 54.7289 107.29 54.7298 107.29 54.7308C107.29 54.7318 107.29 54.7328 107.29 54.7337C107.29 54.7347 107.29 54.7357 107.29 54.7367C107.29 54.7376 107.29 54.7386 107.29 54.7396C107.29 54.7406 107.29 54.7415 107.29 54.7425C107.29 54.7435 107.29 54.7445 107.29 54.7454C107.29 54.7464 107.29 54.7474 107.29 54.7484C107.29 54.7494 107.29 54.7503 107.29 54.7513C107.29 54.7523 107.29 54.7533 107.29 54.7543C107.29 54.7553 107.29 54.7562 107.29 54.7572C107.29 54.7582 107.29 54.7592 107.29 54.7602C107.29 54.7611 107.29 54.7621 107.29 54.7631C107.29 54.7641 107.29 54.7651 107.29 54.7661C107.29 54.7671 107.29 54.768 107.29 54.769C107.29 54.77 107.29 54.771 107.29 54.772C107.29 54.773 107.29 54.774 107.29 54.775C107.29 54.7759 107.29 54.7769 107.29 54.7779C107.29 54.7789 107.29 54.7799 107.29 54.7809C107.29 54.7819 107.29 54.7829 107.29 54.7839C107.29 54.7849 107.29 54.7859 107.29 54.7868C107.29 54.7878 107.29 54.7888 107.29 54.7898C107.29 54.7908 107.29 54.7918 107.29 54.7928C107.29 54.7938 107.29 54.7948 107.29 54.7958C107.29 54.7968 107.29 54.7978 107.29 54.7988C107.29 54.7998 107.29 54.8008 107.29 54.8018C107.29 54.8028 107.29 54.8038 107.29 54.8048C107.29 54.8058 107.29 54.8068 107.29 54.8078C107.29 54.8088 107.29 54.8098 107.29 54.8108C107.29 54.8118 107.29 54.8128 107.29 54.8138C107.29 54.8148 107.29 54.8158 107.29 54.8168C107.29 54.8178 107.29 54.8188 107.29 54.8198C107.29 54.8208 107.29 54.8218 107.29 54.8228C107.29 54.8238 107.29 54.8248 107.29 54.8258C107.29 54.8268 107.29 54.8278 107.29 54.8288C107.29 54.8299 107.29 54.8309 107.29 54.8319C107.29 54.8329 107.29 54.8339 107.29 54.8349C107.29 54.8359 107.29 54.8369 107.29 54.8379C107.29 54.8389 107.29 54.8399 107.29 54.841C107.29 54.842 107.29 54.843 107.29 54.844C107.29 54.845 107.29 54.846 107.29 54.847C107.29 54.848 107.29 54.8491 107.29 54.8501C107.29 54.8511 107.29 54.8521 107.29 54.8531C107.29 54.8541 107.29 54.8551 107.29 54.8562C107.29 54.8572 107.29 54.8582 107.29 54.8592C107.29 54.8602 107.29 54.8612 107.29 54.8623C107.29 54.8633 107.29 54.8643 107.29 54.8653C107.29 54.8663 107.29 54.8674 107.29 54.8684C107.29 54.8694 107.29 54.8704 107.29 54.8714C107.29 54.8725 107.29 54.8735 107.29 54.8745C107.29 54.8755 107.29 54.8766 107.29 54.8776C107.29 54.8786 107.29 54.8796 107.29 54.8806C107.29 54.8817 107.29 54.8827 107.29 54.8837C107.29 54.8847 107.29 54.8858 107.29 54.8868C107.29 54.8878 107.29 54.8889 107.29 54.8899C107.29 54.8909 107.29 54.8919 107.29 54.893C107.29 54.894 107.29 54.895 107.29 54.8961C107.29 54.8971 107.29 54.8981 107.29 54.8991C107.29 54.9002 107.29 54.9012 107.29 54.9022C107.29 54.9033 107.29 54.9043 107.29 54.9053C107.29 54.9064 107.29 54.9074 107.29 54.9084C107.29 54.9095 107.29 54.9105 107.29 54.9115C107.29 54.9126 107.29 54.9136 107.29 54.9146C107.29 54.9157 107.29 54.9167 107.29 54.9177C107.29 54.9188 107.29 54.9198 107.29 54.9209C107.29 54.9219 107.29 54.9229 107.29 54.924C107.29 54.925 107.29 54.926 107.29 54.9271C107.29 54.9281 107.29 54.9292 107.29 54.9302C107.29 54.9312 107.29 54.9323 107.29 54.9333H111.29ZM111.29 53.7333C111.29 45.8026 110.027 39.6641 107.082 35.7898L103.898 38.2102C106.02 41.0025 107.29 46.0196 107.29 53.7333H111.29ZM107.093 35.8034C104.074 31.761 99.0368 30 92.6234 30V34C98.3878 34 101.928 35.5723 103.888 38.1966L107.093 35.8034ZM92.6234 30C90.6114 30 88.5874 30.4135 86.563 31.2035L88.0172 34.9298C89.6373 34.2976 91.1688 34 92.6234 34V30ZM86.5879 31.194C84.6592 31.9172 82.9487 32.8268 81.4813 33.94L83.8989 37.1267C85.0093 36.2843 86.3654 35.5494 87.9923 34.9393L86.5879 31.194ZM81.5171 33.9135C80.172 34.8874 78.9339 35.8912 77.8053 36.9257L80.5082 39.8743C81.513 38.9533 82.6304 38.0459 83.8631 37.1532L81.5171 33.9135ZM77.7743 36.9547C76.7134 37.9695 75.8491 38.8991 75.2234 39.7333L78.4234 42.1333C78.8644 41.5454 79.5557 40.7861 80.5392 39.8453L77.7743 36.9547ZM75.2617 39.6839L74.4617 40.6839L77.5852 43.1827L78.3852 42.1827L75.2617 39.6839ZM78.0234 41.9333V2.66667H74.0234V41.9333H78.0234ZM76.0234 0.666667H71.6901V4.66667H76.0234V0.666667ZM71.3823 0.690496L49.9823 4.02383L50.5979 7.97617L71.9979 4.64284L71.3823 0.690496ZM48.2901 6V12.2H52.2901V6H48.2901ZM49.2611 13.915L53.2611 16.315L55.3191 12.885L51.3191 10.485L49.2611 13.915ZM52.2901 14.6V90H56.2901V14.6H52.2901ZM54.2901 92H75.8901V88H54.2901V92ZM117.528 90H115.528V92H117.528V90ZM138.995 90V92H140.995V90H138.995ZM138.995 33.3333H140.995V31.3333H138.995V33.3333ZM127.861 33.3333V31.3333H127.592L127.332 31.4046L127.861 33.3333ZM113.528 37.2667L112.999 35.338L111.528 35.7416V37.2667H113.528ZM113.528 44.4H111.528V45.5164L112.478 46.1023L113.528 44.4ZM117.528 46.8667H119.528V45.7503L118.578 45.1643L117.528 46.8667ZM127.195 27.2L125.776 28.6099L126.363 29.2H127.195V27.2ZM129.728 27.2V29.2H130.536L131.117 28.6392L129.728 27.2ZM141.128 16.2L142.517 17.6392L143.128 17.0494V16.2H141.128ZM141.128 13.8667H143.128V13.0137L142.512 12.4232L141.128 13.8667ZM129.728 2.93333L131.112 1.48988L130.532 0.933332H129.728V2.93333ZM127.195 2.93333V0.933332H126.366L125.781 1.51912L127.195 2.93333ZM116.261 13.8667L114.847 12.4525L114.261 13.0382V13.8667H116.261ZM116.261 16.2H114.261V17.0249L114.843 17.6099L116.261 16.2ZM117.528 92H138.995V88H117.528V92ZM140.995 90V33.3333H136.995V90H140.995ZM138.995 31.3333H127.861V35.3333H138.995V31.3333ZM127.332 31.4046L112.999 35.338L114.057 39.1954L128.391 35.262L127.332 31.4046ZM111.528 37.2667V44.4H115.528V37.2667H111.528ZM112.478 46.1023L116.478 48.569L118.578 45.1643L114.578 42.6977L112.478 46.1023ZM115.528 46.8667V90H119.528V46.8667H115.528ZM127.195 29.2H129.728V25.2H127.195V29.2ZM131.117 28.6392L142.517 17.6392L139.739 14.7608L128.339 25.7608L131.117 28.6392ZM143.128 16.2V13.8667H139.128V16.2H143.128ZM142.512 12.4232L131.112 1.48988L128.344 4.37678L139.744 15.3101L142.512 12.4232ZM129.728 0.933332H127.195V4.93333H129.728V0.933332ZM125.781 1.51912L114.847 12.4525L117.676 15.2809L128.609 4.34755L125.781 1.51912ZM114.261 13.8667V16.2H118.261V13.8667H114.261ZM114.843 17.6099L125.776 28.6099L128.613 25.7901L117.68 14.7901L114.843 17.6099ZM171.392 90V92H173.392V90H171.392ZM171.392 45.0667V43.0667H169.392V45.0667H171.392ZM179.992 45.0667V47.0667H181.992V45.0667H179.992ZM179.992 33.3333H181.992V31.3333H179.992V33.3333ZM171.392 33.3333H169.392V35.3333H171.392V33.3333ZM176.526 15.0667L176.833 17.0428L176.858 17.0389L176.883 17.0344L176.526 15.0667ZM184.726 16.5333L183.831 18.3222L186.061 19.4372L186.666 17.0184L184.726 16.5333ZM187.259 6.4L189.199 6.88507L189.474 5.78651L188.673 4.98579L187.259 6.4ZM182.259 4.2L181.684 6.11565L181.684 6.11565L182.259 4.2ZM164.526 4.26667L165.092 6.1849L165.102 6.18195L165.112 6.17889L164.526 4.26667ZM157.059 8.2L155.806 6.64125L155.798 6.64732L155.791 6.65346L157.059 8.2ZM151.859 15.8667L149.988 15.1589L149.988 15.1589L151.859 15.8667ZM149.992 33.3333L150.776 35.1735L151.992 34.6556V33.3333H149.992ZM143.259 36.2L142.475 34.3598L141.259 34.8778V36.2H143.259ZM143.259 45.0667H141.259V47.0667H143.259V45.0667ZM149.726 45.0667H151.726V43.0667H149.726V45.0667ZM149.726 90H147.726V92H149.726V90ZM173.392 90V45.0667H169.392V90H173.392ZM171.392 47.0667H179.992V43.0667H171.392V47.0667ZM181.992 45.0667V33.3333H177.992V45.0667H181.992ZM179.992 31.3333H171.392V35.3333H179.992V31.3333ZM173.392 33.3333V23.8H169.392V33.3333H173.392ZM173.392 23.8C173.392 21.328 173.799 19.6847 174.4 18.6635C174.942 17.7401 175.697 17.2199 176.833 17.0428L176.218 13.0905C173.932 13.4468 172.12 14.6488 170.951 16.6365C169.84 18.5264 169.392 20.9831 169.392 23.8H173.392ZM176.883 17.0344C177.237 16.9701 177.649 16.9333 178.126 16.9333V12.9333C177.447 12.9333 176.792 12.9854 176.168 13.0989L176.883 17.0344ZM178.126 16.9333C180.065 16.9333 181.961 17.3869 183.831 18.3222L185.62 14.7445C183.224 13.5464 180.719 12.9333 178.126 12.9333V16.9333ZM186.666 17.0184L189.199 6.88507L185.319 5.91493L182.785 16.0483L186.666 17.0184ZM188.673 4.98579C188.068 4.38108 187.203 3.91057 186.314 3.51937C185.378 3.10724 184.209 2.697 182.834 2.28435L181.684 6.11565C182.975 6.503 183.973 6.85943 184.703 7.18063C185.481 7.52276 185.783 7.75225 185.845 7.81421L188.673 4.98579ZM182.834 2.28435C179.965 1.42385 176.926 1 173.726 1V5C176.57 5 179.219 5.37615 181.684 6.11565L182.834 2.28435ZM173.726 1C170.182 1 166.914 1.44281 163.94 2.35445L165.112 6.17889C167.648 5.40164 170.513 5 173.726 5V1ZM163.959 2.34844C160.991 3.22444 158.27 4.66035 155.806 6.64125L158.312 9.75875C160.381 8.09521 162.638 6.90889 165.092 6.1849L163.959 2.34844ZM155.791 6.65346C153.243 8.74237 151.329 11.6153 149.988 15.1589L153.729 16.5745C154.878 13.5402 156.43 11.3021 158.327 9.74653L155.791 6.65346ZM149.988 15.1589C148.638 18.7268 147.992 22.8665 147.992 27.5333H151.992C151.992 23.2224 152.591 19.5843 153.729 16.5745L149.988 15.1589ZM147.992 27.5333V33.3333H151.992V27.5333H147.992ZM149.209 31.4932L142.475 34.3598L144.042 38.0402L150.776 35.1735L149.209 31.4932ZM141.259 36.2V45.0667H145.259V36.2H141.259ZM143.259 47.0667H149.726V43.0667H143.259V47.0667ZM147.726 45.0667V90H151.726V45.0667H147.726ZM149.726 92H171.392V88H149.726V92ZM209.492 90.4L208.975 88.4681L208.966 88.4705L209.492 90.4ZM214.826 88.4667L215.833 90.1942L215.86 90.1788L215.886 90.1627L214.826 88.4667ZM217.426 86.4667L218.84 87.8809L219.426 87.2951V86.4667H217.426ZM217.426 77.4H219.426V73.1795L216.159 75.8521L217.426 77.4ZM215.559 78.3333L216.123 80.2521L216.123 80.2521L215.559 78.3333ZM208.292 76.9333L206.794 78.2585L206.794 78.2585L208.292 76.9333ZM206.759 45.0667V43.0667H204.759V45.0667H206.759ZM217.892 45.0667V47.0667H219.892V45.0667H217.892ZM217.892 33.3333H219.892V31.3333H217.892V33.3333ZM206.959 33.3333H204.959V35.3333H206.959V33.3333ZM206.959 17.8H208.959V15.8H206.959V17.8ZM195.226 17.8V15.8H193.918L193.393 16.9979L195.226 17.8ZM188.426 33.3333L189.024 35.2417L189.893 34.9693L190.258 34.1354L188.426 33.3333ZM180.559 35.8L179.96 33.8916L178.559 34.3311V35.8H180.559ZM180.559 45.0667H178.559V47.0667H180.559V45.0667ZM185.159 45.0667H187.159V43.0667H185.159V45.0667ZM188.692 86L187.019 87.0951L187.023 87.1022L187.028 87.1094L188.692 86ZM201.292 93.4C204.459 93.4 207.373 93.0509 210.018 92.3295L208.966 88.4705C206.722 89.0824 204.17 89.4 201.292 89.4V93.4ZM210.01 92.3319C212.526 91.6578 214.523 90.9587 215.833 90.1942L213.818 86.7391C212.995 87.2191 211.436 87.8089 208.975 88.4681L210.01 92.3319ZM215.886 90.1627C217.041 89.4406 218.037 88.6833 218.84 87.8809L216.011 85.0525C215.48 85.5834 214.744 86.1594 213.766 86.7707L215.886 90.1627ZM219.426 86.4667V77.4H215.426V86.4667H219.426ZM216.159 75.8521C215.921 76.0466 215.555 76.2498 214.995 76.4146L216.123 80.2521C217.074 79.9724 217.952 79.5534 218.692 78.9479L216.159 75.8521ZM214.995 76.4146C214.452 76.574 213.802 76.6667 213.026 76.6667V80.6667C214.116 80.6667 215.154 80.5371 216.123 80.2521L214.995 76.4146ZM213.026 76.6667C211.237 76.6667 210.304 76.1892 209.79 75.6082L206.794 78.2585C208.325 79.9886 210.547 80.6667 213.026 80.6667V76.6667ZM209.79 75.6082C209.599 75.3918 209.317 74.8901 209.097 73.8759C208.882 72.8862 208.759 71.5624 208.759 69.8667H204.759C204.759 71.7265 204.891 73.3582 205.188 74.7241C205.479 76.0654 205.963 77.3193 206.794 78.2585L209.79 75.6082ZM208.759 69.8667V45.0667H204.759V69.8667H208.759ZM206.759 47.0667H217.892V43.0667H206.759V47.0667ZM219.892 45.0667V33.3333H215.892V45.0667H219.892ZM217.892 31.3333H206.959V35.3333H217.892V31.3333ZM208.959 33.3333V17.8H204.959V33.3333H208.959ZM206.959 15.8H195.226V19.8H206.959V15.8ZM193.393 16.9979L186.593 32.5313L190.258 34.1354L197.058 18.602L193.393 16.9979ZM187.827 31.425L179.96 33.8916L181.157 37.7084L189.024 35.2417L187.827 31.425ZM178.559 35.8V45.0667H182.559V35.8H178.559ZM180.559 47.0667H185.159V43.0667H180.559V47.0667ZM183.159 45.0667V67.7333H187.159V45.0667H183.159ZM183.159 67.7333C183.159 76.3807 184.325 82.9782 187.019 87.0951L190.366 84.9049C188.348 81.8218 187.159 76.2415 187.159 67.7333H183.159ZM187.028 87.1094C189.932 91.4656 194.906 93.4 201.292 93.4V89.4C195.678 89.4 192.252 87.7344 190.356 84.8906L187.028 87.1094ZM270.511 104.933L268.937 103.7L268.937 103.7L270.511 104.933ZM276.778 33.3333H278.778V31.3333H276.778V33.3333ZM251.378 33.3333V31.3333H249.378V33.3333H251.378ZM251.378 41H249.378V42.0812L250.283 42.6734L251.378 41ZM255.045 43.4H257.045V42.3188L256.14 41.7266L255.045 43.4ZM255.045 74.7333L256.346 76.2518L257.045 75.6532V74.7333H255.045ZM253.245 76.0667L252.197 74.3633L252.166 74.3824L252.135 74.4026L253.245 76.0667ZM251.578 76.9333L252.166 78.8449L252.232 78.8247L252.296 78.8L251.578 76.9333ZM245.911 75.8L244.224 76.8738L244.253 76.9189L244.284 76.9625L245.911 75.8ZM244.978 33.3333H246.978V31.3333H244.978V33.3333ZM220.711 33.3333V31.3333H218.711V33.3333H220.711ZM220.711 41H218.711V41.8284L219.297 42.4142L220.711 41ZM223.111 43.4H225.111V42.5716L224.526 41.9858L223.111 43.4ZM227.178 85.8667L225.56 87.0419L225.567 87.0511L227.178 85.8667ZM246.245 90.3333L245.469 88.4901L245.46 88.4938L245.451 88.4976L246.245 90.3333ZM250.511 87.8L251.803 89.3268L251.82 89.3126L251.837 89.298L250.511 87.8ZM253.578 84.8L252.101 83.4515L252.098 83.4547L253.578 84.8ZM255.645 82.2L253.949 81.14L253.949 81.14L255.645 82.2ZM256.311 81.1333H258.311V74.1598L254.615 80.0733L256.311 81.1333ZM256.311 86.8667L258.311 86.9L258.311 86.8833V86.8667H256.311ZM255.445 93.6L253.525 93.0382L253.525 93.0382L255.445 93.6ZM253.111 97.8L251.729 96.3547L251.713 96.3701L251.697 96.3858L253.111 97.8ZM249.645 99.9333L249.052 98.0232L249.052 98.0232L249.645 99.9333ZM232.778 98.3333L233.767 96.595L231.905 95.5357L230.976 97.4657L232.778 98.3333ZM229.311 105.533L227.509 104.666L226.955 105.818L227.768 106.805L229.311 105.533ZM251.111 114.933C260.286 114.933 267.423 112.119 272.086 106.167L268.937 103.7C265.244 108.414 259.448 110.933 251.111 110.933V114.933ZM272.086 106.167C276.639 100.354 278.778 92.2746 278.778 82.2H274.778C274.778 91.7698 272.739 98.8462 268.937 103.7L272.086 106.167ZM278.778 82.2V33.3333H274.778V82.2H278.778ZM276.778 31.3333H251.378V35.3333H276.778V31.3333ZM249.378 33.3333V41H253.378V33.3333H249.378ZM250.283 42.6734L253.949 45.0734L256.14 41.7266L252.473 39.3266L250.283 42.6734ZM253.045 43.4V74.7333H257.045V43.4H253.045ZM253.743 73.2148C253.185 73.6935 252.669 74.0726 252.197 74.3633L254.293 77.77C254.976 77.3497 255.66 76.8398 256.346 76.2518L253.743 73.2148ZM252.135 74.4026C251.72 74.6793 251.296 74.8992 250.86 75.0666L252.296 78.8C253.016 78.5231 253.703 78.1652 254.354 77.7308L252.135 74.4026ZM250.99 75.0218C250.594 75.1436 250.214 75.2 249.845 75.2V79.2C250.631 79.2 251.407 79.0786 252.166 78.8449L250.99 75.0218ZM249.845 75.2C248.085 75.2 247.629 74.7629 247.539 74.6375L244.284 76.9625C245.528 78.7037 247.694 79.2 249.845 79.2V75.2ZM247.599 74.7262C247.284 74.2314 246.978 73.1843 246.978 71.2667H242.978C242.978 73.4379 243.295 75.413 244.224 76.8738L247.599 74.7262ZM246.978 71.2667V33.3333H242.978V71.2667H246.978ZM244.978 31.3333H220.711V35.3333H244.978V31.3333ZM218.711 33.3333V41H222.711V33.3333H218.711ZM219.297 42.4142L221.697 44.8142L224.526 41.9858L222.126 39.5858L219.297 42.4142ZM221.111 43.4V67.0667H225.111V43.4H221.111ZM221.111 67.0667C221.111 75.9621 222.46 82.7737 225.56 87.0419L228.796 84.6915C226.474 81.4929 225.111 75.7712 225.111 67.0667H221.111ZM225.567 87.0511C228.802 91.4541 234.219 93.4 241.178 93.4V89.4C234.892 89.4 230.976 87.657 228.79 84.6823L225.567 87.0511ZM241.178 93.4C243.194 93.4 245.152 92.9848 247.039 92.169L245.451 88.4976C244.049 89.1041 242.629 89.4 241.178 89.4V93.4ZM247.021 92.1766C248.859 91.4028 250.464 90.4598 251.803 89.3268L249.22 86.2732C248.247 87.0958 247.009 87.8417 245.469 88.4901L247.021 92.1766ZM251.837 89.298C253.038 88.2355 254.113 87.1848 255.058 86.1453L252.098 83.4547C251.265 84.3708 250.296 85.3201 249.186 86.302L251.837 89.298ZM255.055 86.1485C256.025 85.0865 256.804 84.1182 257.341 83.26L253.949 81.14C253.596 81.704 252.998 82.469 252.101 83.4515L255.055 86.1485ZM257.341 83.26L258.007 82.1933L254.615 80.0733L253.949 81.14L257.341 83.26ZM254.311 81.1333V86.8667H258.311V81.1333H254.311ZM254.312 86.8333C254.269 89.3872 253.993 91.4414 253.525 93.0382L257.364 94.1618C257.964 92.1141 258.265 89.6794 258.311 86.9L254.312 86.8333ZM253.525 93.0382C253.058 94.635 252.426 95.6884 251.729 96.3547L254.494 99.2453C255.842 97.9561 256.765 96.2094 257.364 94.1618L253.525 93.0382ZM251.697 96.3858C250.888 97.1953 250.009 97.7262 249.052 98.0232L250.238 101.843C251.858 101.34 253.291 100.449 254.526 99.2142L251.697 96.3858ZM249.052 98.0232C248.005 98.3482 246.681 98.5333 245.045 98.5333V102.533C246.964 102.533 248.707 102.318 250.238 101.843L249.052 98.0232ZM245.045 98.5333C239.534 98.5333 235.879 97.7965 233.767 96.595L231.789 100.072C234.833 101.803 239.356 102.533 245.045 102.533V98.5333ZM230.976 97.4657L227.509 104.666L231.113 106.401L234.58 99.201L230.976 97.4657ZM227.768 106.805C229.96 109.467 233.301 111.431 237.552 112.833L238.804 109.034C234.966 107.769 232.396 106.133 230.855 104.262L227.768 106.805ZM237.552 112.833C241.813 114.238 246.337 114.933 251.111 114.933V110.933C246.73 110.933 242.632 110.296 238.804 109.034L237.552 112.833Z" fill="#E49E5C"/>
</svg>
