<svg width="275" height="111" viewBox="0 0 275 111" fill="none" xmlns="http://www.w3.org/2000/svg">
<path d="M21.7333 89.4C38.9333 89.4 47.5333 82.5556 47.5333 68.8667C47.5333 64.1556 46.3556 60.2222 44 57.0667C41.6444 53.9111 37.8667 51.4667 32.6667 49.7333C31.7333 49.4667 30.6222 49.1778 29.3333 48.8667C28.0444 48.5111 27.0444 48.2444 26.3333 48.0667C25.6222 47.8444 24.8889 47.5778 24.1333 47.2667C23.4222 46.9111 22.9111 46.5111 22.6 46.0667C22.2889 45.5778 22.1333 44.9778 22.1333 44.2667C22.1333 41.7778 24.2444 40.5333 28.4667 40.5333C33.6222 40.5333 37.6667 41.9778 40.6 44.8667L43.5333 35.3333C43.5333 35.3333 43.1333 34.9556 42.3333 34.2C38.7333 31.4 33.1333 30 25.5333 30C21.0889 30 17.0667 30.6444 13.4667 31.9333C9.86667 33.2222 6.91111 35.3111 4.6 38.2C2.28889 41.0444 1.13333 44.4667 1.13333 48.4667C1.13333 58.2444 6.31111 64.6889 16.6667 67.8C20.6667 69 23.5556 70.0667 25.3333 71C27.1111 71.8889 28 72.9111 28 74.0667C28 75.2667 27.4889 76.2 26.4667 76.8667C25.4889 77.5333 23.6667 77.8667 21 77.8667C17.3111 77.8667 13.6889 77.3333 10.1333 76.2667C6.62222 75.2 4.11111 73.9333 2.6 72.4667L0.866667 83.2C2.06667 84.5333 4.8 85.9111 9.06667 87.3333C13.3333 88.7111 17.5556 89.4 21.7333 89.4ZM73.8901 88V49.1333C73.9345 49.0889 74.1568 48.8889 74.5568 48.5333C75.0012 48.1778 75.2679 47.9556 75.3568 47.8667C75.4901 47.7778 75.7345 47.6 76.0901 47.3333C76.4901 47.0667 76.779 46.8889 76.9568 46.8C77.179 46.7111 77.4679 46.5778 77.8234 46.4C78.179 46.2222 78.5123 46.1111 78.8234 46.0667C79.179 46.0222 79.5345 46 79.8901 46C83.579 46 85.3568 48.0889 85.2234 52.2667V88H107.223V54.2C107.223 53.8889 107.246 53.4667 107.29 52.9333C107.29 52.4 107.29 52 107.29 51.7333C107.29 43.9111 106.023 38.3333 103.49 35C101.001 31.6667 96.7123 30 90.6234 30C88.8901 30 87.1123 30.3556 85.2901 31.0667C83.5123 31.7333 81.979 32.5556 80.6901 33.5333C79.4012 34.4667 78.2234 35.4222 77.1568 36.4C76.1345 37.3778 75.3568 38.2222 74.8234 38.9333L74.0234 39.9333V0.666667H69.6901L48.2901 4V10.2L52.2901 12.6V88H73.8901ZM115.528 88H136.995V31.3333H125.861L111.528 35.2667V42.4L115.528 44.8667V88ZM125.195 25.2H127.728L139.128 14.2V11.8667L127.728 0.933332H125.195L114.261 11.8667V14.2L125.195 25.2ZM169.392 88V43.0667H177.992V31.3333H169.392V21.8C169.392 16.5111 171.103 13.6 174.526 13.0667C175.014 12.9778 175.548 12.9333 176.126 12.9333C178.392 12.9333 180.592 13.4667 182.726 14.5333L185.259 4.4C184.592 3.73333 182.926 3 180.259 2.2C177.592 1.4 174.748 1 171.726 1C168.348 1 165.281 1.42222 162.526 2.26667C159.814 3.06667 157.326 4.37778 155.059 6.2C152.837 8.02222 151.103 10.5778 149.859 13.8667C148.614 17.1556 147.992 21.0444 147.992 25.5333V31.3333L141.259 34.2V43.0667H147.726V88H169.392ZM199.292 89.4C202.314 89.4 205.048 89.0667 207.492 88.4C209.981 87.7333 211.759 87.0889 212.826 86.4667C213.892 85.8 214.759 85.1333 215.426 84.4667V75.4C214.937 75.8 214.314 76.1111 213.559 76.3333C212.803 76.5556 211.959 76.6667 211.026 76.6667C208.892 76.6667 207.314 76.0889 206.292 74.9333C205.27 73.7778 204.759 71.4222 204.759 67.8667V43.0667H215.892V31.3333H204.959V15.8H193.226L186.426 31.3333L178.559 33.8V43.0667H183.159V65.7333C183.159 74.3111 184.337 80.4 186.692 84C189.092 87.6 193.292 89.4 199.292 89.4ZM249.111 110.933C257.867 110.933 264.334 108.267 268.511 102.933C272.689 97.6 274.778 90.0222 274.778 80.2V31.3333H249.378V39L253.045 41.4V72.7333C252.423 73.2667 251.823 73.7111 251.245 74.0667C250.711 74.4222 250.156 74.7111 249.578 74.9333C249 75.1111 248.423 75.2 247.845 75.2C245.889 75.2 244.578 74.7333 243.911 73.8C243.289 72.8222 242.978 71.3111 242.978 69.2667V31.3333H218.711V39L221.111 41.4V65.0667C221.111 73.8667 222.467 80.1333 225.178 83.8667C227.889 87.5556 232.556 89.4 239.178 89.4C240.911 89.4 242.6 89.0444 244.245 88.3333C245.934 87.6222 247.356 86.7778 248.511 85.8C249.667 84.7778 250.689 83.7778 251.578 82.8C252.511 81.7778 253.2 80.9111 253.645 80.2L254.311 79.1333V84.8667C254.267 87.5333 253.978 89.7778 253.445 91.6C252.911 93.4222 252.134 94.8222 251.111 95.8C250.089 96.8222 248.934 97.5333 247.645 97.9333C246.356 98.3333 244.823 98.5333 243.045 98.5333C237.445 98.5333 233.356 97.8 230.778 96.3333L227.311 103.533C229.178 105.8 232.134 107.6 236.178 108.933C240.223 110.267 244.534 110.933 249.111 110.933Z" fill="#E49E5C"/>
</svg>
